<?xml version="1.0" encoding="UTF-8" standalone="no"?>
<!-- Created with Inkscape (http://www.inkscape.org/) -->

<svg
   version="1.1"
   id="svg2"
   width="672"
   height="672"
   viewBox="0 0 672 672"
   xmlns="http://www.w3.org/2000/svg"
   xmlns:svg="http://www.w3.org/2000/svg">
  <defs
     id="defs6">
    <clipPath
       clipPathUnits="userSpaceOnUse"
       id="clipPath22">
      <path
         d="M 252,463.14176 111.96016,405.13536 53.953762,265.09552 111.96016,125.05569 252,67.049288 l 140.03984,58.006402 58.0064,140.03983 -58.0064,140.03984 z"
         id="path20" />
    </clipPath>
    <clipPath
       clipPathUnits="userSpaceOnUse"
       id="clipPath32">
      <path
         d="M 252,463.14176 111.96016,405.13536 53.953762,265.09552 111.96016,125.05569 252,67.049288 l 140.03984,58.006402 58.0064,140.03983 -58.0064,140.03984 z"
         id="path30" />
    </clipPath>
    <clipPath
       clipPathUnits="userSpaceOnUse"
       id="clipPath56">
      <path
         d="M 252,463.14176 111.96016,405.13536 53.953762,265.09552 111.96016,125.05569 252,67.049288 l 140.03984,58.006402 58.0064,140.03983 -58.0064,140.03984 z"
         id="path54" />
    </clipPath>
    <clipPath
       clipPathUnits="userSpaceOnUse"
       id="clipPath74">
      <path
         d="M 252,463.14176 111.96016,405.13536 53.953762,265.09552 111.96016,125.05569 252,67.049288 l 140.03984,58.006402 58.0064,140.03983 -58.0064,140.03984 z"
         id="path72" />
    </clipPath>
    <clipPath
       clipPathUnits="userSpaceOnUse"
       id="clipPath92">
      <path
         d="M 252,463.14176 111.96016,405.13536 53.953762,265.09552 111.96016,125.05569 252,67.049288 l 140.03984,58.006402 58.0064,140.03983 -58.0064,140.03984 z"
         id="path90" />
    </clipPath>
    <clipPath
       clipPathUnits="userSpaceOnUse"
       id="clipPath110">
      <path
         d="M 252,463.14176 111.96016,405.13536 53.953762,265.09552 111.96016,125.05569 252,67.049288 l 140.03984,58.006402 58.0064,140.03983 -58.0064,140.03984 z"
         id="path108" />
    </clipPath>
    <clipPath
       clipPathUnits="userSpaceOnUse"
       id="clipPath128">
      <path
         d="M 252,463.14176 111.96016,405.13536 53.953762,265.09552 111.96016,125.05569 252,67.049288 l 140.03984,58.006402 58.0064,140.03983 -58.0064,140.03984 z"
         id="path126" />
    </clipPath>
    <clipPath
       clipPathUnits="userSpaceOnUse"
       id="clipPath146">
      <path
         d="M 252,463.14176 111.96016,405.13536 53.953762,265.09552 111.96016,125.05569 252,67.049288 l 140.03984,58.006402 58.0064,140.03983 -58.0064,140.03984 z"
         id="path144" />
    </clipPath>
  </defs>
  <g
     id="g10"
     transform="matrix(1.3333333,0,0,-1.3333333,0,672)">
    <path
       d="M 0,0 H 504 V 504 H 0 Z"
       style="fill:#ffffff;fill-opacity:1;fill-rule:nonzero;stroke:none"
       id="path12" />
    <path
       d="M 252,463.14176 111.96016,405.13536 53.953762,265.09552 111.96016,125.05569 252,67.049288 l 140.03984,58.006402 58.0064,140.03983 -58.0064,140.03984 z"
       style="fill:#e8e8e8;fill-opacity:1;fill-rule:nonzero;stroke:none"
       id="path14" />
    <g
       id="g16">
      <g
         id="g18"
         clip-path="url(#clipPath22)">
        <path
           d="M 252,397.38375 178.17019,338.92534 78.056003,265.09552 120.511,133.60653 252,102.68187 l 117.78467,44.62898 -32.61082,117.78467 54.86599,140.03984 z"
           style="fill:#f67e14;fill-opacity:0.25;fill-rule:nonzero;stroke:none"
           id="path24" />
      </g>
    </g>
    <g
       id="g26">
      <g
         id="g28"
         clip-path="url(#clipPath32)">
        <path
           d="m 252,265.09552 v 24.75578 24.75578 24.75578 24.75578 24.75578 24.75578 24.75578 24.75578"
           style="fill:none;stroke:#b0b0b0;stroke-width:0.8;stroke-linecap:square;stroke-linejoin:round;stroke-miterlimit:10;stroke-dasharray:none;stroke-opacity:1"
           id="path34" />
        <path
           d="m 252,265.09552 -17.50498,17.50498 -17.50498,17.50498 -17.50498,17.50498 -17.50498,17.50498 -17.50498,17.50498 -17.50498,17.50498 -17.50498,17.50498 -17.50498,17.50498"
           style="fill:none;stroke:#b0b0b0;stroke-width:0.8;stroke-linecap:square;stroke-linejoin:round;stroke-miterlimit:10;stroke-dasharray:none;stroke-opacity:1"
           id="path36" />
        <path
           d="M 252,265.09552 H 227.24422 202.48844 177.73266 152.97688 128.2211 103.46532 78.709542 53.953762"
           style="fill:none;stroke:#b0b0b0;stroke-width:0.8;stroke-linecap:square;stroke-linejoin:round;stroke-miterlimit:10;stroke-dasharray:none;stroke-opacity:1"
           id="path38" />
        <path
           d="M 252,265.09552 234.49502,247.59054 216.99004,230.08557 199.48506,212.58059 181.98008,195.07561 164.4751,177.57063 146.97012,160.06565 129.46514,142.56067 111.96016,125.05569"
           style="fill:none;stroke:#b0b0b0;stroke-width:0.8;stroke-linecap:square;stroke-linejoin:round;stroke-miterlimit:10;stroke-dasharray:none;stroke-opacity:1"
           id="path40" />
        <path
           d="M 252,265.09552 V 240.33974 215.58397 190.82819 166.07241 141.31663 116.56085 91.805067 67.049288"
           style="fill:none;stroke:#b0b0b0;stroke-width:0.8;stroke-linecap:square;stroke-linejoin:round;stroke-miterlimit:10;stroke-dasharray:none;stroke-opacity:1"
           id="path42" />
        <path
           d="m 252,265.09552 17.50498,-17.50498 17.50498,-17.50497 17.50498,-17.50498 17.50498,-17.50498 17.50498,-17.50498 17.50498,-17.50498 17.50498,-17.50498 17.50498,-17.50498"
           style="fill:none;stroke:#b0b0b0;stroke-width:0.8;stroke-linecap:square;stroke-linejoin:round;stroke-miterlimit:10;stroke-dasharray:none;stroke-opacity:1"
           id="path44" />
        <path
           d="m 252,265.09552 h 24.75578 24.75578 24.75578 24.75578 24.75578 24.75578 24.75578 24.75578"
           style="fill:none;stroke:#b0b0b0;stroke-width:0.8;stroke-linecap:square;stroke-linejoin:round;stroke-miterlimit:10;stroke-dasharray:none;stroke-opacity:1"
           id="path46" />
        <path
           d="m 252,265.09552 17.50498,17.50498 17.50498,17.50498 17.50498,17.50498 17.50498,17.50498 17.50498,17.50498 17.50498,17.50498 17.50498,17.50498 17.50498,17.50498"
           style="fill:none;stroke:#b0b0b0;stroke-width:0.8;stroke-linecap:square;stroke-linejoin:round;stroke-miterlimit:10;stroke-dasharray:none;stroke-opacity:1"
           id="path48" />
      </g>
    </g>
    <g
       id="g50">
      <g
         id="g52"
         clip-path="url(#clipPath56)">
        <path
           d="M 252,304.70477 223.99203,293.10349 212.39075,265.09552 223.99203,237.08756 252,225.48628 l 28.00797,11.60128 11.60128,28.00796 -11.60128,28.00797 L 252,304.70477"
           style="fill:none;stroke:#b0b0b0;stroke-width:0.8;stroke-linecap:square;stroke-linejoin:round;stroke-miterlimit:10;stroke-dasharray:none;stroke-opacity:1"
           id="path58" />
      </g>
    </g>
    <g
       id="g60">
      <g
         id="g62"
         transform="translate(236.8422,304.59595)">
        <text
           xml:space="preserve"
           transform="scale(1,-1)"
           style="font-variant:normal;font-weight:normal;font-size:14px;font-family:'DejaVu Sans';-inkscape-font-specification:DejaVuSans;writing-mode:lr-tb;fill:#000000;fill-opacity:1;fill-rule:nonzero;stroke:none"
           id="text66"><tspan
             x="0 8.9040003 13.356"
             y="0"
             id="tspan64">0.2</tspan></text>
      </g>
    </g>
    <g
       id="g68">
      <g
         id="g70"
         clip-path="url(#clipPath74)">
        <path
           d="M 252,344.31402 195.98406,321.11146 172.7815,265.09552 195.98406,209.07959 252,185.87703 l 56.01593,23.20256 23.20256,56.01593 -23.20256,56.01594 L 252,344.31402"
           style="fill:none;stroke:#b0b0b0;stroke-width:0.8;stroke-linecap:square;stroke-linejoin:round;stroke-miterlimit:10;stroke-dasharray:none;stroke-opacity:1"
           id="path76" />
      </g>
    </g>
    <g
       id="g78">
      <g
         id="g80"
         transform="translate(221.68439,341.19012)">
        <text
           xml:space="preserve"
           transform="scale(1,-1)"
           style="font-variant:normal;font-weight:normal;font-size:14px;font-family:'DejaVu Sans';-inkscape-font-specification:DejaVuSans;writing-mode:lr-tb;fill:#000000;fill-opacity:1;fill-rule:nonzero;stroke:none"
           id="text84"><tspan
             x="0 8.9040003 13.356"
             y="0"
             id="tspan82">0.4</tspan></text>
      </g>
    </g>
    <g
       id="g86">
      <g
         id="g88"
         clip-path="url(#clipPath92)">
        <path
           d="M 252,383.92327 167.9761,349.11943 133.17226,265.09552 167.9761,181.07162 252,146.26778 l 84.0239,34.80384 34.80384,84.0239 L 336.0239,349.11943 252,383.92327"
           style="fill:none;stroke:#b0b0b0;stroke-width:0.8;stroke-linecap:square;stroke-linejoin:round;stroke-miterlimit:10;stroke-dasharray:none;stroke-opacity:1"
           id="path94" />
      </g>
    </g>
    <g
       id="g96">
      <g
         id="g98"
         transform="translate(206.52659,377.78429)">
        <text
           xml:space="preserve"
           transform="scale(1,-1)"
           style="font-variant:normal;font-weight:normal;font-size:14px;font-family:'DejaVu Sans';-inkscape-font-specification:DejaVuSans;writing-mode:lr-tb;fill:#000000;fill-opacity:1;fill-rule:nonzero;stroke:none"
           id="text102"><tspan
             x="0 8.9040003 13.356"
             y="0"
             id="tspan100">0.6</tspan></text>
      </g>
    </g>
    <g
       id="g104">
      <g
         id="g106"
         clip-path="url(#clipPath110)">
        <path
           d="M 252,423.53251 139.96813,377.12739 93.56301,265.09552 139.96813,153.06365 252,106.65853 364.03187,153.06365 410.43699,265.09552 364.03187,377.12739 252,423.53251"
           style="fill:none;stroke:#b0b0b0;stroke-width:0.8;stroke-linecap:square;stroke-linejoin:round;stroke-miterlimit:10;stroke-dasharray:none;stroke-opacity:1"
           id="path112" />
      </g>
    </g>
    <g
       id="g114">
      <g
         id="g116"
         transform="translate(191.36879,414.37847)">
        <text
           xml:space="preserve"
           transform="scale(1,-1)"
           style="font-variant:normal;font-weight:normal;font-size:14px;font-family:'DejaVu Sans';-inkscape-font-specification:DejaVuSans;writing-mode:lr-tb;fill:#000000;fill-opacity:1;fill-rule:nonzero;stroke:none"
           id="text120"><tspan
             x="0 8.9040003 13.356"
             y="0"
             id="tspan118">0.8</tspan></text>
      </g>
    </g>
    <g
       id="g122">
      <g
         id="g124"
         clip-path="url(#clipPath128)">
        <path
           d="M 252,463.14176 111.96016,405.13536 53.953762,265.09552 111.96016,125.05569 252,67.049288 392.03984,125.05569 450.04624,265.09552 392.03984,405.13536 252,463.14176"
           style="fill:none;stroke:#b0b0b0;stroke-width:0.8;stroke-linecap:square;stroke-linejoin:round;stroke-miterlimit:10;stroke-dasharray:none;stroke-opacity:1"
           id="path130" />
      </g>
    </g>
    <g
       id="g132">
      <g
         id="g134"
         transform="translate(176.21099,450.97264)">
        <text
           xml:space="preserve"
           transform="scale(1,-1)"
           style="font-variant:normal;font-weight:normal;font-size:14px;font-family:'DejaVu Sans';-inkscape-font-specification:DejaVuSans;writing-mode:lr-tb;fill:#000000;fill-opacity:1;fill-rule:nonzero;stroke:none"
           id="text138"><tspan
             x="0 8.9040003 13.356"
             y="0"
             id="tspan136">1.0</tspan></text>
      </g>
    </g>
    <g
       id="g140">
      <g
         id="g142"
         clip-path="url(#clipPath146)">
        <path
           d="M 252,397.38375 178.17019,338.92534 78.056003,265.09552 120.511,133.60653 252,102.68187 369.78467,147.31085 337.17385,265.09552 392.03984,405.13536 252,397.38375"
           style="fill:none;stroke:#f67e14;stroke-width:1.5;stroke-linecap:square;stroke-linejoin:round;stroke-miterlimit:10;stroke-dasharray:none;stroke-opacity:1"
           id="path148" />
      </g>
    </g>
    <g
       id="g150">
      <path
         d="M 252,463.14176 111.96016,405.13536 53.953762,265.09552 111.96016,125.05569 252,67.049288 l 140.03984,58.006402 58.0064,140.03983 -58.0064,140.03984 z"
         style="fill:none;stroke:#000000;stroke-width:0.8;stroke-linecap:square;stroke-linejoin:miter;stroke-miterlimit:10;stroke-dasharray:none;stroke-opacity:1"
         id="path152" />
      <g
         id="g154"
         transform="translate(189.89062,13.994753)">
        <text
           xml:space="preserve"
           transform="scale(1,-1)"
           style="font-variant:normal;font-weight:bold;font-size:20px;font-family:'DejaVu Sans';-inkscape-font-specification:DejaVuSans-Bold;writing-mode:lr-tb;fill:#000000;fill-opacity:1;fill-rule:nonzero;stroke:none"
           id="text158"><tspan
             x="0 12.74 29.74 44.139999 51.099998 67.860001 74.82 88.739998 96.339996 110.26"
             y="0"
             id="tspan156">LQS = 0.72</tspan></text>
      </g>
      <g
         id="g160"
         transform="translate(199,483.04012)">
        <text
           xml:space="preserve"
           transform="matrix(1,0,0,-1,0,0.359375)"
           style="font-variant:normal;font-weight:normal;font-size:14px;font-family:'DejaVu Sans';-inkscape-font-specification:DejaVuSans;writing-mode:lr-tb;fill:#000000;fill-opacity:1;fill-rule:nonzero;stroke:none"
           id="text164"><tspan
             x="0 8.9072266 13.357422 18.40918 22.859375 31.746094 40.359375 45.848633 51.310547 61.085938 69.651367 77.936523"
             y="0"
             id="tspan162">1 - det(Cov[</tspan></text>
        <text
           xml:space="preserve"
           transform="matrix(1,0,0,-1,83.398437,0.359375)"
           style="font-variant:normal;font-weight:bold;font-size:14px;font-family:'DejaVu Sans';-inkscape-font-specification:DejaVuSans-Bold;writing-mode:lr-tb;fill:#000000;fill-opacity:1;fill-rule:nonzero;stroke:none"
           id="text168"><tspan
             x="0"
             y="0"
             id="tspan166">X</tspan></text>
        <text
           xml:space="preserve"
           transform="matrix(1,0,0,-1,94.192383,0.359375)"
           style="font-variant:normal;font-weight:normal;font-size:14px;font-family:'DejaVu Sans';-inkscape-font-specification:DejaVuSans;writing-mode:lr-tb;fill:#000000;fill-opacity:1;fill-rule:nonzero;stroke:none"
           id="text172"><tspan
             x="0 5.4619141"
             y="0"
             id="tspan170">])</tspan></text>
      </g>
      <g
         id="g174"
         transform="translate(236.41406,467.19642)">
        <text
           xml:space="preserve"
           transform="scale(1,-1)"
           style="font-variant:normal;font-weight:normal;font-size:14px;font-family:'DejaVu Sans';-inkscape-font-specification:DejaVuSans;writing-mode:lr-tb;fill:#000000;fill-opacity:1;fill-rule:nonzero;stroke:none"
           id="text178"><tspan
             x="0 8.9040003 13.356 22.26"
             y="0"
             id="tspan176">0.67</tspan></text>
      </g>
      <g
         id="g180"
         transform="rotate(45,-440.22554,287.07367)">
        <text
           xml:space="preserve"
           transform="scale(1,-1)"
           style="font-variant:normal;font-weight:normal;font-size:14px;font-family:'DejaVu Sans';-inkscape-font-specification:DejaVuSans;writing-mode:lr-tb;fill:#000000;fill-opacity:1;fill-rule:nonzero;stroke:none"
           id="text184"><tspan
             x="0 8.8900003 14.378 22.959999 27.412001 38.192001 46.801998 55.678001 62.972"
             y="0"
             id="tspan182">Sta.Dens.</tspan></text>
      </g>
      <g
         id="g186"
         transform="rotate(45,-430.163,316.87433)">
        <text
           xml:space="preserve"
           transform="scale(1,-1)"
           style="font-variant:normal;font-weight:normal;font-size:14px;font-family:'DejaVu Sans';-inkscape-font-specification:DejaVuSans;writing-mode:lr-tb;fill:#000000;fill-opacity:1;fill-rule:nonzero;stroke:none"
           id="text190"><tspan
             x="0 8.9040003 13.356 22.26"
             y="0"
             id="tspan188">0.53</tspan></text>
      </g>
      <g
         id="g192"
         transform="rotate(90,-96.609905,130.66531)">
        <text
           xml:space="preserve"
           transform="scale(1,-1)"
           style="font-variant:normal;font-weight:normal;font-size:14px;font-family:'DejaVu Sans';-inkscape-font-specification:DejaVuSans;writing-mode:lr-tb;fill:#000000;fill-opacity:1;fill-rule:nonzero;stroke:none"
           id="text196"><tspan
             x="0 8.9040003 13.356 18.41 22.862 32.438 39.787998 44.240002 54.487999 63.363998 67.255997 71.168373"
             y="0"
             id="tspan194">1 - Az.Unif.</tspan></text>
      </g>
      <g
         id="g198"
         transform="rotate(90,-99.805243,149.70434)">
        <text
           xml:space="preserve"
           transform="scale(1,-1)"
           style="font-variant:normal;font-weight:normal;font-size:14px;font-family:'DejaVu Sans';-inkscape-font-specification:DejaVuSans;writing-mode:lr-tb;fill:#000000;fill-opacity:1;fill-rule:nonzero;stroke:none"
           id="text202"><tspan
             x="0 8.9040003 13.356 22.26"
             y="0"
             id="tspan200">0.88</tspan></text>
      </g>
      <g
         id="g204"
         transform="rotate(-45,191.71671,-15.017747)">
        <text
           xml:space="preserve"
           transform="scale(1,-1)"
           style="font-variant:normal;font-weight:normal;font-size:14px;font-family:'DejaVu Sans';-inkscape-font-specification:DejaVuSans;writing-mode:lr-tb;fill:#000000;fill-opacity:1;fill-rule:nonzero;stroke:none"
           id="text208"><tspan
             x="0 8.9040003 13.356 18.41 22.862 32.438 39.787998 44.240002 55.09 63.672001"
             y="0"
             id="tspan206">1 - Az.Gap</tspan></text>
      </g>
      <g
         id="g210"
         transform="rotate(-45,200.49799,-47.911618)">
        <text
           xml:space="preserve"
           transform="scale(1,-1)"
           style="font-variant:normal;font-weight:normal;font-size:14px;font-family:'DejaVu Sans';-inkscape-font-specification:DejaVuSans;writing-mode:lr-tb;fill:#000000;fill-opacity:1;fill-rule:nonzero;stroke:none"
           id="text214"><tspan
             x="0 8.9040003 13.356 22.26"
             y="0"
             id="tspan212">0.94</tspan></text>
      </g>
      <g
         id="g216"
         transform="translate(200.89844,39.416551)">
        <text
           xml:space="preserve"
           transform="scale(1,-1)"
           style="font-variant:normal;font-weight:normal;font-size:14px;font-family:'DejaVu Sans';-inkscape-font-specification:DejaVuSans;writing-mode:lr-tb;fill:#000000;fill-opacity:1;fill-rule:nonzero;stroke:none"
           id="text220"><tspan
             x="0 8.9040003 13.356 18.41 22.862 31.752001 40.362 48.062 52.514 62.09 69.440002 73.891998 84.741997 93.323997"
             y="0"
             id="tspan218">1 - Sec.Az.Gap</tspan></text>
      </g>
      <g
         id="g222"
         transform="translate(236.41406,55.260251)">
        <text
           xml:space="preserve"
           transform="scale(1,-1)"
           style="font-variant:normal;font-weight:normal;font-size:14px;font-family:'DejaVu Sans';-inkscape-font-specification:DejaVuSans;writing-mode:lr-tb;fill:#000000;fill-opacity:1;fill-rule:nonzero;stroke:none"
           id="text226"><tspan
             x="0 8.9040003 13.356 22.26"
             y="0"
             id="tspan224">0.82</tspan></text>
      </g>
      <g
         id="g228"
         transform="rotate(45,99.025482,499.83216)">
        <text
           xml:space="preserve"
           transform="scale(1,-1)"
           style="font-variant:normal;font-weight:normal;font-size:14px;font-family:'DejaVu Sans';-inkscape-font-specification:DejaVuSans;writing-mode:lr-tb;fill:#000000;fill-opacity:1;fill-rule:nonzero;stroke:none"
           id="text232"><tspan
             x="0 8.9040003 13.356 18.41 22.862 33.334 41.944 50.526001 54.998749 59.450748 68.340752 73.828751"
             y="0"
             id="tspan230">1 - Near.Sta</tspan></text>
      </g>
      <g
         id="g234"
         transform="rotate(45,67.087946,522.84242)">
        <text
           xml:space="preserve"
           transform="scale(1,-1)"
           style="font-variant:normal;font-weight:normal;font-size:14px;font-family:'DejaVu Sans';-inkscape-font-specification:DejaVuSans;writing-mode:lr-tb;fill:#000000;fill-opacity:1;fill-rule:nonzero;stroke:none"
           id="text238"><tspan
             x="0 8.9040003 13.356 22.26"
             y="0"
             id="tspan236">0.84</tspan></text>
      </g>
      <g
         id="g240"
         transform="rotate(-90,380.91069,-89.033912)">
        <text
           xml:space="preserve"
           transform="scale(1,-1)"
           style="font-variant:normal;font-weight:normal;font-size:14px;font-family:'DejaVu Sans';-inkscape-font-specification:DejaVuSans;writing-mode:lr-tb;fill:#000000;fill-opacity:1;fill-rule:nonzero;stroke:none"
           id="text244"><tspan
             x="0 8.9040003 13.356 18.41 22.862 32.591999 44.674"
             y="0"
             id="tspan242">1 - RMS</tspan></text>
      </g>
      <g
         id="g246"
         transform="rotate(-90,367.39118,-86.709719)">
        <text
           xml:space="preserve"
           transform="scale(1,-1)"
           style="font-variant:normal;font-weight:normal;font-size:14px;font-family:'DejaVu Sans';-inkscape-font-specification:DejaVuSans;writing-mode:lr-tb;fill:#000000;fill-opacity:1;fill-rule:nonzero;stroke:none"
           id="text250"><tspan
             x="0 8.9040003 13.356 22.26"
             y="0"
             id="tspan248">0.43</tspan></text>
      </g>
      <g
         id="g252"
         transform="rotate(-45,721.60835,-250.37176)">
        <text
           xml:space="preserve"
           transform="scale(1,-1)"
           style="font-variant:normal;font-weight:normal;font-size:14px;font-family:'DejaVu Sans';-inkscape-font-specification:DejaVuSans;writing-mode:lr-tb;fill:#000000;fill-opacity:1;fill-rule:nonzero;stroke:none"
           id="text256"><tspan
             x="0 10.472 14.924 23.069124 26.961124 34.661125 42.767124"
             y="0"
             id="tspan254">N.Picks</tspan></text>
      </g>
      <g
         id="g258"
         transform="rotate(-45,697.74894,-253.87971)">
        <text
           xml:space="preserve"
           transform="scale(1,-1)"
           style="font-variant:normal;font-weight:normal;font-size:14px;font-family:'DejaVu Sans';-inkscape-font-specification:DejaVuSans;writing-mode:lr-tb;fill:#000000;fill-opacity:1;fill-rule:nonzero;stroke:none"
           id="text262"><tspan
             x="0 8.9040003 13.356 22.26"
             y="0"
             id="tspan260">1.00</tspan></text>
      </g>
    </g>
  </g>
</svg>
