<?xml version="1.0" encoding="UTF-8" standalone="no"?>
<!-- Created with Inkscape (http://www.inkscape.org/) -->

<svg
   version="1.1"
   id="svg2"
   width="628.93335"
   height="593.46667"
   viewBox="0 0 628.93335 593.46667"
   xmlns="http://www.w3.org/2000/svg"
   xmlns:svg="http://www.w3.org/2000/svg">
  <defs
     id="defs6">
    <clipPath
       clipPathUnits="userSpaceOnUse"
       id="clipPath78">
      <path
         d="m 416.5,149.898 h 4252.2 v 4252.2 H 416.5 Z"
         id="path76" />
    </clipPath>
    <clipPath
       clipPathUnits="userSpaceOnUse"
       id="clipPath222">
      <path
         d="m 416.5,149.898 h 4252.2 v 4252.2 H 416.5 Z"
         id="path220" />
    </clipPath>
  </defs>
  <g
     id="g10"
     transform="matrix(1.3333333,0,0,-1.3333333,0,593.46667)">
    <g
       id="g12"
       transform="scale(0.1)">
      <path
         d="M 835.297,149.898 V 101.297"
         style="fill:none;stroke:#000000;stroke-width:4.8;stroke-linecap:butt;stroke-linejoin:miter;stroke-miterlimit:3.32551;stroke-dasharray:none;stroke-opacity:1"
         id="path14" />
      <path
         d="m 835.297,4402.1 v 48"
         style="fill:none;stroke:#000000;stroke-width:4.8;stroke-linecap:butt;stroke-linejoin:miter;stroke-miterlimit:3.32551;stroke-dasharray:none;stroke-opacity:1"
         id="path16" />
      <path
         d="M 1653.1,149.898 V 101.297"
         style="fill:none;stroke:#000000;stroke-width:4.8;stroke-linecap:butt;stroke-linejoin:miter;stroke-miterlimit:3.32551;stroke-dasharray:none;stroke-opacity:1"
         id="path18" />
      <path
         d="m 1653.1,4402.1 v 48"
         style="fill:none;stroke:#000000;stroke-width:4.8;stroke-linecap:butt;stroke-linejoin:miter;stroke-miterlimit:3.32551;stroke-dasharray:none;stroke-opacity:1"
         id="path20" />
      <path
         d="M 2470.9,149.898 V 101.297"
         style="fill:none;stroke:#000000;stroke-width:4.8;stroke-linecap:butt;stroke-linejoin:miter;stroke-miterlimit:3.32551;stroke-dasharray:none;stroke-opacity:1"
         id="path22" />
      <path
         d="m 2470.9,4402.1 v 48"
         style="fill:none;stroke:#000000;stroke-width:4.8;stroke-linecap:butt;stroke-linejoin:miter;stroke-miterlimit:3.32551;stroke-dasharray:none;stroke-opacity:1"
         id="path24" />
      <path
         d="M 3288.7,149.898 V 101.297"
         style="fill:none;stroke:#000000;stroke-width:4.8;stroke-linecap:butt;stroke-linejoin:miter;stroke-miterlimit:3.32551;stroke-dasharray:none;stroke-opacity:1"
         id="path26" />
      <path
         d="m 3288.7,4402.1 v 48"
         style="fill:none;stroke:#000000;stroke-width:4.8;stroke-linecap:butt;stroke-linejoin:miter;stroke-miterlimit:3.32551;stroke-dasharray:none;stroke-opacity:1"
         id="path28" />
      <path
         d="M 4106.5,149.898 V 101.297"
         style="fill:none;stroke:#000000;stroke-width:4.8;stroke-linecap:butt;stroke-linejoin:miter;stroke-miterlimit:3.32551;stroke-dasharray:none;stroke-opacity:1"
         id="path30" />
      <path
         d="m 4106.5,4402.1 v 48"
         style="fill:none;stroke:#000000;stroke-width:4.8;stroke-linecap:butt;stroke-linejoin:miter;stroke-miterlimit:3.32551;stroke-dasharray:none;stroke-opacity:1"
         id="path32" />
      <path
         d="M 416.5,921.5 H 367.898"
         style="fill:none;stroke:#000000;stroke-width:4.8;stroke-linecap:butt;stroke-linejoin:miter;stroke-miterlimit:3.32551;stroke-dasharray:none;stroke-opacity:1"
         id="path34" />
      <path
         d="m 4668.7,921.5 h 48"
         style="fill:none;stroke:#000000;stroke-width:4.8;stroke-linecap:butt;stroke-linejoin:miter;stroke-miterlimit:3.32551;stroke-dasharray:none;stroke-opacity:1"
         id="path36" />
      <path
         d="M 416.5,1739.3 H 367.898"
         style="fill:none;stroke:#000000;stroke-width:4.8;stroke-linecap:butt;stroke-linejoin:miter;stroke-miterlimit:3.32551;stroke-dasharray:none;stroke-opacity:1"
         id="path38" />
      <path
         d="m 4668.7,1739.3 h 48"
         style="fill:none;stroke:#000000;stroke-width:4.8;stroke-linecap:butt;stroke-linejoin:miter;stroke-miterlimit:3.32551;stroke-dasharray:none;stroke-opacity:1"
         id="path40" />
      <path
         d="M 416.5,2557.1 H 367.898"
         style="fill:none;stroke:#000000;stroke-width:4.8;stroke-linecap:butt;stroke-linejoin:miter;stroke-miterlimit:3.32551;stroke-dasharray:none;stroke-opacity:1"
         id="path42" />
      <path
         d="m 4668.7,2557.1 h 48"
         style="fill:none;stroke:#000000;stroke-width:4.8;stroke-linecap:butt;stroke-linejoin:miter;stroke-miterlimit:3.32551;stroke-dasharray:none;stroke-opacity:1"
         id="path44" />
      <path
         d="M 416.5,3374.9 H 367.898"
         style="fill:none;stroke:#000000;stroke-width:4.8;stroke-linecap:butt;stroke-linejoin:miter;stroke-miterlimit:3.32551;stroke-dasharray:none;stroke-opacity:1"
         id="path46" />
      <path
         d="m 4668.7,3374.9 h 48"
         style="fill:none;stroke:#000000;stroke-width:4.8;stroke-linecap:butt;stroke-linejoin:miter;stroke-miterlimit:3.32551;stroke-dasharray:none;stroke-opacity:1"
         id="path48" />
      <path
         d="M 416.5,4192.7 H 367.898"
         style="fill:none;stroke:#000000;stroke-width:4.8;stroke-linecap:butt;stroke-linejoin:miter;stroke-miterlimit:3.32551;stroke-dasharray:none;stroke-opacity:1"
         id="path50" />
      <path
         d="m 4668.7,4192.7 h 48"
         style="fill:none;stroke:#000000;stroke-width:4.8;stroke-linecap:butt;stroke-linejoin:miter;stroke-miterlimit:3.32551;stroke-dasharray:none;stroke-opacity:1"
         id="path52" />
      <g
         id="g54"
         transform="scale(10)">
        <text
           xml:space="preserve"
           transform="matrix(1,0,0,-1,66.7125,0.214063)"
           style="font-variant:normal;font-weight:normal;font-size:9.66px;font-family:Helvetica;-inkscape-font-specification:Helvetica;writing-mode:lr-tb;fill:#000000;fill-opacity:1;fill-rule:nonzero;stroke:none"
           id="text68"><tspan
             x="0 5.3709602 10.74192 14.60592 19.976879 25.347839 27.1929 81.780113 87.15107 92.522034 96.386032 101.75699 107.12795 108.97301 163.56023 168.93118 174.30214 178.16614 183.53711 188.90807 190.75313 245.34033 250.71129 256.08224 259.94626 265.3172 270.68817 272.53323 327.12045 332.49139 337.86237 341.72635 347.09732 352.46829 354.31335"
             y="0"
             id="tspan56">11°30'E12°00'E12°30'E13°00'E13°30'E</tspan><tspan
             x="-66.968399 -61.597439 -56.226479 -52.36248 -46.99152 -41.62056 -39.775501"
             y="-88.417999"
             id="tspan58">50°30'N</tspan><tspan
             x="-66.968399 -61.597439 -56.226479 -52.36248 -46.99152 -41.62056 -39.775501"
             y="-170.19769"
             id="tspan60">51°00'N</tspan><tspan
             x="-66.968399 -61.597439 -56.226479 -52.36248 -46.99152 -41.62056 -39.775501"
             y="-251.9778"
             id="tspan62">51°30'N</tspan><tspan
             x="-66.968399 -61.597439 -56.226479 -52.36248 -46.99152 -41.62056 -39.775501"
             y="-333.7579"
             id="tspan64">52°00'N</tspan><tspan
             x="-66.968399 -61.597439 -56.226479 -52.36248 -46.99152 -41.62056 -39.775501"
             y="-415.53799"
             id="tspan66">52°30'N</tspan></text>
      </g>
      <path
         d="m 416.5,149.898 h 4252.2 v 4252.2 H 416.5 Z"
         style="fill:#ffffff;fill-opacity:1;fill-rule:nonzero;stroke:none"
         id="path70" />
      <g
         id="g72">
        <g
           id="g74"
           clip-path="url(#clipPath78)">
          <path
             d="M 416.5,3374.9 H 1653.1 V 4402.1 H 416.5 Z"
             style="fill:#d3d3d3;fill-opacity:1;fill-rule:nonzero;stroke:none"
             id="path80" />
          <path
             d="m 3288.7,3947.9 h -4.8 l -4.8,-0.6 6.6,6 3,3 v 445.8 H 1653.1 V 3374.9 h 1635.6"
             style="fill:#d3d3d3;fill-opacity:1;fill-rule:nonzero;stroke:none"
             id="path82" />
          <path
             d="m 2460.7,4039.1 -6,-14.4 v -4.8 l 1.2,-4.8 4.8,-7.8 4.2,-3 1.2,-4.2 -1.8,-5.4 -6.6,-7.2 -15.6,-7.8 -6,-1.8 h -7.8 l -7.2,-1.2 -15,-7.2 -23.4,2.4 -17.4,0.6 -6,1.8 -3.6,3.6 3,4.8 4.2,2.4 3.6,4.2 7.8,6 3,4.8 7.8,2.4 -7.2,-0.6 -6.6,1.2 -15.6,7.8 -7.8,6 -5.4,2.4 -3,3.6 -6,2.4 -15,-0.6 -9.6,-4.8 -4.2,-3 h -9 l -4.8,2.4 1.2,4.8 3.6,3 11.4,4.2 h 16.8 l 13.8,2.4 h 8.4 l 13.2,-3.6 17.4,-0.6 12,3.6 4.8,2.4 14.4,1.8 h 7.8 l 7.2,-1.8 8.4,-0.6 7.2,0.6 3,10.8 9.6,5.4 5.4,1.8 6.6,-1.2 1.8,-3.6"
             style="fill:#ffffff;fill-opacity:1;fill-rule:nonzero;stroke:none"
             id="path84" />
          <path
             d="m 3142.9,4070.3 1.8,-4.2 12.6,-9 4.8,-3 5.4,-1.8 9.6,-1.2 7.2,1.2 7.2,-1.8 4.2,-3.6 7.2,-11.4 0.6,-4.8 -0.6,-5.4 -7.2,-7.2 -1.8,-4.8 4.2,-3.6 6,-2.4 8.4,-5.4 1.8,-4.2 v -5.4 l 3,-9 0.6,-9.6 8.4,-10.8 -10.2,3 -8.4,0.6 -6,2.4 -4.8,3 -3.6,3.6 -3,8.4 -1.8,9 -4.2,8.4 -12,13.8 -2.4,15 -1.8,3.6 -4.2,3.6 -18.6,6 -4.8,7.2 -1.2,4.8 -3.6,3 -14.4,8.4 -6,2.4 -3.6,3 20.4,1.8 7.8,-1.2"
             style="fill:#ffffff;fill-opacity:1;fill-rule:nonzero;stroke:none"
             id="path86" />
          <path
             d="m 3241.9,3954.5 9,-6 4.2,-6.6 -7.2,-6.6 -3,-3.6 -4.8,-3 -3,-3.6 -14.4,-8.4 -3,-3.6 -4.8,-3 -3,-3.6 -9,-6.6 -15,-7.2 -6.6,-1.2 h -7.2 l -2.4,4.2 1.2,5.4 2.4,4.8 7.8,6.6 10.8,4.2 1.8,4.2 -0.6,4.2 1.8,5.4 9.6,11.4 4.2,3.6 10.2,10.8 4.2,3 1.2,3.6 6.6,-4.2"
             style="fill:#ffffff;fill-opacity:1;fill-rule:nonzero;stroke:none"
             id="path88" />
          <path
             d="m 3112.3,4021.1 3,-3.6 3.6,-3 10.8,-5.4 4.2,-7.8 5.4,-12.6 v -4.8 l -2.4,-4.2 -6,-2.4 -10.8,4.8 -8.4,6.6 -3,3.6 v 4.8 l 6,1.8 3.6,3.6 -3,3.6 -10.2,6 -3,3.6 -1.8,4.2 v 8.4 l 9,-4.2"
             style="fill:#ffffff;fill-opacity:1;fill-rule:nonzero;stroke:none"
             id="path90" />
          <path
             d="m 2731.3,3995.3 17.4,-6.6 1.2,-3.6 -18,-4.8 -4.8,-3 -6,-8.4 -0.6,-5.4 -1.8,-4.8 -7.8,-1.2 -13.2,3 -5.4,2.4 -3.6,3 v 5.4 l 3,3.6 6,1.8 4.2,3 2.4,4.2 4.8,3 3.6,3.6 11.4,4.2"
             style="fill:#ffffff;fill-opacity:1;fill-rule:nonzero;stroke:none"
             id="path92" />
          <path
             d="m 3169.3,3974.3 4.2,-3 3,-3.6 4.2,-3 14.4,-3 0.6,-10.2 -0.6,-5.4 h -5.4 l -12.6,9 -7.2,1.2 -11.4,4.8 -3,3.6 -3,9 6,1.8"
             style="fill:#ffffff;fill-opacity:1;fill-rule:nonzero;stroke:none"
             id="path94" />
          <path
             d="m 2967.1,4151.3 22.2,-9.6 -3,-4.8 -43.2,-4.8 -7.8,-0.6 -3,3.6 9.6,12 4.2,3 5.4,2.4 7.2,1.2"
             style="fill:#ffffff;fill-opacity:1;fill-rule:nonzero;stroke:none"
             id="path96" />
          <path
             d="m 3288.7,4402.1 v -445.8 0.6 l 11.4,4.2 18.6,17.4 12,10.2 9,6 5.4,1.8 h 5.4 l 3.6,-4.2 -1.2,-3 v -5.4 l -4.2,-9 -15,-13.8 -19.8,-10.2 -13.8,-3 h -11.4 v -573 h 1380 v 1027.2"
             style="fill:#d3d3d3;fill-opacity:1;fill-rule:nonzero;stroke:none"
             id="path98" />
          <path
             d="m 3643.3,4198.1 -4.2,-3.6 -2.4,-4.8 -10.8,-4.2 -7.2,-1.2 -4.2,-3 -2.4,-4.2 2.4,-3.6 1.2,-4.8 -4.8,-8.4 -1.8,-4.8 1.8,-9.6 -1.2,-10.8 -5.4,-8.4 -1.8,-10.8 -3,-4.8 -4.2,-3 -5.4,-2.4 -3.6,-3 -3,-4.2 -0.6,-6 0.6,-4.8 4.2,-7.8 -1.2,-5.4 -4.2,-3.6 -12.6,-3 -6.6,1.2 3.6,9.6 -0.6,4.8 -3,3.6 -12,4.8 h -9.6 l -12.6,-4.2 -22.2,-8.4 -12.6,-3 -16.2,-0.6 -13.8,-2.4 -4.2,3.6 v 4.8 l 3.6,4.2 13.8,8.4 19.2,4.2 5.4,2.4 13.8,1.8 16.8,6 9.6,6 16.2,7.2 10.8,3.6 10.2,5.4 3.6,3.6 4.2,9.6 3,3.6 4.2,9.6 1.2,5.4 v 10.2 l -1.2,4.8 3,9.6 3.6,3.6 1.8,4.8 0.6,5.4 1.8,4.8 5.4,3 4.8,-3 2.4,-3.6 6,-2.4 8.4,6 10.8,5.4 4.8,-3 -1.2,-5.4"
             style="fill:#ffffff;fill-opacity:1;fill-rule:nonzero;stroke:none"
             id="path100" />
          <path
             d="m 4398.7,4104.5 4.8,-7.2 1.2,-4.8 v -5.4 l -17.4,0.6 -6.6,-1.2 -11.4,-4.2 -10.2,-5.4 -6.6,-1.2 -34.8,3 -6,1.8 -3,3.6 v 5.4 l 1.2,5.4 4.2,9 3,3 6.6,1.8 27.6,1.8 18,-1.8 24.6,-0.6"
             style="fill:#ffffff;fill-opacity:1;fill-rule:nonzero;stroke:none"
             id="path102" />
          <path
             d="m 4336.3,3627.5 2.4,-3.6 -0.6,-4.8 -12,-3.6 -4.8,-2.4 -3.6,-4.2 -4.2,-3 -7.8,-0.6 -7.8,1.2 -6,-1.8 -3.6,-3.6 -7.8,-13.2 -5.4,-2.4 -6,-1.2 -7.8,1.8 -3,3.6 2.4,10.8 3,4.8 9,5.4 10.2,4.8 12,10.2 6,2.4 h 7.2 l 7.2,1.8 16.2,-0.6"
             style="fill:#ffffff;fill-opacity:1;fill-rule:nonzero;stroke:none"
             id="path104" />
          <path
             d="m 3732.1,4333.1 1.8,-9.6 -1.8,-4.8 -5.4,-2.4 -6.6,-1.2 -4.8,-2.4 -10.8,-11.4 -4.2,-3 -10.2,-4.8 -12.6,-3 -7.2,-0.6 -5.4,2.4 1.8,5.4 4.2,3 16.2,6.6 3.6,3.6 7.8,12.6 5.4,3 7.8,0.6 5.4,7.8 5.4,2.4 5.4,-1.2"
             style="fill:#ffffff;fill-opacity:1;fill-rule:nonzero;stroke:none"
             id="path106" />
          <path
             d="m 4651.3,3815.3 3,-2.4 2.4,-4.2 1.2,-4.8 -5.4,-15 -2.4,-4.2 -4.8,-3.6 -6,-1.8 h -14.4 l -15.6,3 -11.4,4.2 -3,9 3,4.2 21,15 11.4,4.2 6.6,1.8 h 8.4 l 4.8,-3"
             style="fill:#ffffff;fill-opacity:1;fill-rule:nonzero;stroke:none"
             id="path108" />
          <path
             d="M 416.5,1739.3 H 1653.1 V 3374.9 H 416.5 Z"
             style="fill:#d3d3d3;fill-opacity:1;fill-rule:nonzero;stroke:none"
             id="path110" />
          <path
             d="M 1653.1,1739.3 H 3288.7 V 3374.9 H 1653.1 Z"
             style="fill:#d3d3d3;fill-opacity:1;fill-rule:nonzero;stroke:none"
             id="path112" />
          <path
             d="m 3288.7,1739.3 h 1380 v 1635.6 h -1380 z"
             style="fill:#d3d3d3;fill-opacity:1;fill-rule:nonzero;stroke:none"
             id="path114" />
          <path
             d="m 416.5,149.898 h 1236.6 v 1589.4 H 416.5 Z"
             style="fill:#d3d3d3;fill-opacity:1;fill-rule:nonzero;stroke:none"
             id="path116" />
          <path
             d="m 1165.9,960.5 7.8,-1.203 h 7.8 l 3.6,-3.598 3.6,-2.402 h 7.2 l 7.2,1.203 7.2,-0.602 4.8,-2.398 1.2,-4.801 -3.6,-3.601 -5.4,-1.801 -4.8,-3 -4.8,-1.797 -2.4,-4.801 -1.2,-4.801 h -6.6 l -4.8,1.801 -4.2,3.598 -3,3.601 -1.8,9 -6,6.602 -4.8,2.398 -1.8,4.2"
             style="fill:#ffffff;fill-opacity:1;fill-rule:nonzero;stroke:none"
             id="path118" />
          <path
             d="m 1653.1,149.898 h 1635.6 v 1589.4 H 1653.1 Z"
             style="fill:#d3d3d3;fill-opacity:1;fill-rule:nonzero;stroke:none"
             id="path120" />
          <path
             d="m 2432.5,229.098 -3,-3 -1.8,-4.801 V 216.5 l 3,-3.602 1.8,-4.199 -12.6,-1.801 -15,-6.601 -13.8,-1.797 -15.6,-0.602 -5.4,-1.8 -4.2,-3 -6.6,-0.598 -5.4,-2.402 -3,-3.598 -4.2,-3.602 -4.2,-2.398 -7.2,-7.203 -1.8,-4.199 -6.6,-1.2 -4.8,1.2 -4.2,3 -5.4,-1.801 -1.8,-4.797 -3.6,-0.602 -1.2,8.399 4.8,9 15,-3 4.2,3 5.4,2.402 10.8,9.598 2.4,4.801 4.2,3 21.6,1.199 12.6,3.601 h 6.6 l 11.4,3.602 4.2,16.199 6,7.801 5.4,2.398 h 15.6 l 4.2,-2.398"
             style="fill:#ffffff;fill-opacity:1;fill-rule:nonzero;stroke:none"
             id="path122" />
          <path
             d="m 3288.7,149.898 h 1380 v 1589.4 h -1380 z"
             style="fill:#d3d3d3;fill-opacity:1;fill-rule:nonzero;stroke:none"
             id="path124" />
          <path
             d="m 1806.1,631.699 10.8,-4.199 7.8,-1.203 18,-0.598 8.4,-1.801 21,-0.601 31.8,0.601 6.6,1.801 h 15.6 l 4.8,-1.801 6,1.2 6,-1.2 5.4,-2.398 3.6,-3 5.4,-7.203 9.6,-6 6.6,-1.199 0.6,-4.2 2.4,-4.199 -0.6,-5.402 -3,-4.797 -3,-16.801 0.6,-9 5.4,-7.801 10.8,-4.8 28.8,-5.399 15.6,-1.801 18,-0.601 15,0.601 8.4,-0.601 6,-7.199 2.4,-4.2 0.6,-4.8 -1.8,-4.801 -8.4,-5.399 -6.6,-1.199 -9,-5.402 1.2,-4.797 3,-3.602 4.2,-3 2.4,-3.601 4.2,-3.598 4.2,-2.402 7.8,-6.598 4.8,-2.402 6.6,-1.797 3.6,-3 10.2,-4.801 10.2,-10.801 -1.8,-10.8 -5.4,-15 -4.2,-9 v -5.399 l 2.4,-4.199 6.6,-6 21,-15 30,-10.203 14.4,-2.399 6,1.2 5.4,2.402 3,3.598 2.4,10.8 v 5.399 l -1.2,7.801 h -1.2 l -1.2,9 -3.6,7.8 -3.6,3.602 -4.8,7.797 -0.6,9.601 3.6,22.2 -0.6,15 0.6,6 4.2,3 5.4,1.8 16.2,-0.601 6.6,0.601 5.4,2.399 3.6,9 1.2,11.402 -1.2,4.199 4.2,15.602 11.4,16.199 3,3.598 4.2,3 5.4,2.402 4.2,3 11.4,3 5.4,2.399 18,4.8 10.2,4.801 7.2,6.598 1.2,5.402 -4.2,8.399 -3,3 v 5.402 l 3.6,9.598 7.8,7.199 10.2,4.203 27,3 10.8,4.199 3,4.199 3,10.2 7.2,6.601 6,1.199 10.2,5.399 6.6,0.601 11.4,4.2 12.6,2.402 15,0.598 6,1.8 3,3.602 1.8,5.398 -1.2,4.2 -3,3.601 -3,8.399 v 5.402 l 4.8,8.398 4.2,3.602 24,12.598 4.2,3 6,7.199 4.2,3.601 10.8,4.2 13.2,1.8 41.4,-0.601 14.4,1.801 15,0.601 10.8,4.199 9,5.399 12.6,3 20.4,3 15,6.601 4.8,2.399 6.6,1.203 h 7.8 l 16.8,-6.602 7.8,-1.199 15,0.598 18.6,4.801 12.6,2.402 h 7.8 l 12.6,-3.602 10.2,-5.398 3.6,-3 4.8,-2.402 3.6,-3.598 4.2,-2.402 4.2,-3.598 6.6,-1.203 6.6,0.601 2.4,4.801 13.2,15 10.8,10.199 9.6,11.399 4.2,3 3,4.203 8.4,6 24,12.598 26.4,10.199 12.6,3 15,0.601 7.8,-0.601 5.4,-2.399 6,-12.601 9.6,-4.797 7.2,0.598 3,4.199 -1.8,4.203 -3,3.598 1.8,5.402 3.6,3 9,5.398 2.4,4.2 4.2,3 7.8,-0.598 18.6,-6 4.8,-3 29.4,-10.203 6.6,-1.199 34.8,-13.2 19.8,-4.8 3.6,-3 2.4,-4.2 4.2,-3 7.2,-1.8 h 9 l 6,-1.801 0.6,-5.399 1.8,-4.199 4.2,-2.402 22.8,-1.797 7.8,-6 4.8,-1.801 12.6,3 6.6,0.598 6,2.402 6,0.598 24.6,6.601 20.4,2.399 10.8,4.203 4.2,3.598 1.8,3.601 7.2,7.801"
             style="fill:none;stroke:#000000;stroke-width:10.2;stroke-linecap:butt;stroke-linejoin:miter;stroke-miterlimit:3.32551;stroke-dasharray:none;stroke-opacity:1"
             id="path126" />
          <path
             d="m 2234.5,149.898 -12.6,7.801 -15,0.598 -13.8,-1.797 h -7.2 l -10.8,4.199 -7.8,6 -3,8.399 -8.4,6.601 -21,4.199 -49.2,3.602 -6,2.398 -2.4,3.602 v 5.398 l 7.2,7.2 3,4.199 v 4.801 l -4.2,8.402 -9,10.199 -7.8,6.598 -6,7.203 -3.6,2.398 -8.4,1.801 -15,0.598 -6,7.203 -4.8,7.199 -6,2.399 h -16.2 l -8.4,5.402 -3,3.598 -7.8,16.8 -10.8,19.801 -2.4,3 0.6,5.399 5.4,14.402 15.6,19.199 5.4,7.801 1.2,5.398 -1.8,9 -3,4.801 -10.8,9.598 -9,11.402 -1.8,4.199 -3,3.602 -1.8,3.598 -15,13.199 -16.8,10.801 -12.6,9.601 -9,5.399 -4.8,12.601 -7.8,6.598 -20.4,4.203 -7.8,1.199 h -9 l -7.8,1.801 -7.8,0.598 -11.4,4.199 -14.4,8.402 -3.6,3 -3,3.598 -1.8,4.203 -0.6,4.797 7.2,13.801 15,6.601 29.4,8.399 9.6,4.8 4.2,3 v 6 l -1.8,4.2 -15,12.601 -7.2,6.598 -2.4,9.601 1.2,5.399 4.2,9 -1.2,4.801 -4.2,3 -5.4,2.402 -15,1.797 -13.2,3.601 -6,7.2 -4.2,3 -1.2,4.199"
             style="fill:none;stroke:#000000;stroke-width:10.2;stroke-linecap:butt;stroke-linejoin:miter;stroke-miterlimit:3.32551;stroke-dasharray:none;stroke-opacity:1"
             id="path128" />
          <path
             d="m 3288.7,807.5 4.2,3.598 10.2,3.601 12.6,9 3.6,3.598 1.8,16.203 -0.6,4.797 -3.6,8.402 -0.6,10.199 1.8,9.602 7.8,13.199 2.4,16.801 4.8,15 4.8,3 5.4,1.797 6.6,0.601 19.2,4.2 7.2,-1.801 8.4,-5.399 3,-3.601 6.6,-1.797 9,-0.602 37.2,2.399 18.6,3.601 15.6,7.2 10.2,5.402 11.4,3.598 h 7.8 l 5.4,-2.399 4.2,-3 5.4,-7.199 6,-1.801 15,-0.601 30.6,1.199 17.4,-1.199 7.8,0.601 5.4,1.801 0.6,10.199 18,10.199 10.2,12.602 10.2,18 9.6,10.797 4.8,9 v 5.403 l -3,9 v 4.8 l 3.6,10.2 17.4,11.4 3.6,3 3,4.8 0.6,5.4 6.6,0.6 3.6,4.2 4.2,9 4.8,3 h 7.2 l 15.6,-2.4 h 8.4 l 6,-1.2 7.2,-6.6 9,-10.8 4.2,-3.6 6.6,-1.2 32.4,5.4 17.4,5.4 4.2,3.6 -0.6,14.4 0.6,5.4 1.8,4.8 6,8.4 13.2,8.4 34.2,11.4 6,0.6 5.4,3 10.2,4.2 8.4,6 4.8,9 1.2,5.4 -0.6,9.6 1.8,4.8 7.8,-0.6 11.4,-4.8 3.6,-3 5.4,-2.4 8.4,-11.4 1.8,-3.6 3,-3.6 3.6,-8.4 9.6,-10.2 5.4,-3 33,-8.4 h 8.4 l 7.8,-1.8 7.8,-0.6 12,-5.4 h 8.4 l 10.2,4.8 4.2,3 3,3.6 4.2,2.4 3.6,4.8 4.2,2.4 7.8,6.6 8.4,6 3.6,4.2 4.2,2.4 3,4.2 8.4,4.8 v -0.6 l 14.4,7.8 10.2,4.8 3,3.6 -1.2,4.8 -2.4,3.6 -9,5.4 -3,3.6 9,5.4 21.6,8.4 8.4,6 5.4,2.4 10.8,10.2 1.8,5.4 1.2,10.2 -8.4,15.6 -3.6,4.2 -7.8,6 -1.8,4.2 3.6,3.6 18,5.4 27,10.8 6,1.2 25.8,-3 14.4,1.8 46.8,0.6 5.4,1.8 12,10.2 3,3.6 9,5.4 18.6,4.2 15.6,0.6 25.2,-2.4 16.8,-7.2 25.2,-3 h 15.6 l 13.2,2.4 14.4,8.4 3,3.6 4.2,3 6,2.4 6.6,-0.6 9,-6 7.8,-1.2 9,5.4 16.8,6 15,0.6 24,-2.4 9,-1.8 h 7.8 l 13.8,-4.2 29.4,-5.4 31.2,-3 v 0"
             style="fill:none;stroke:#000000;stroke-width:10.2;stroke-linecap:butt;stroke-linejoin:miter;stroke-miterlimit:3.32551;stroke-dasharray:none;stroke-opacity:1"
             id="path130" />
        </g>
      </g>
      <path
         d="M 835.297,149.898 V 4402.1"
         style="fill:none;stroke:#000000;stroke-width:2.4;stroke-linecap:butt;stroke-linejoin:miter;stroke-miterlimit:3.32551;stroke-dasharray:none;stroke-opacity:1"
         id="path132" />
      <path
         d="M 1653.1,149.898 V 4402.1"
         style="fill:none;stroke:#000000;stroke-width:2.4;stroke-linecap:butt;stroke-linejoin:miter;stroke-miterlimit:3.32551;stroke-dasharray:none;stroke-opacity:1"
         id="path134" />
      <path
         d="M 2470.9,149.898 V 4402.1"
         style="fill:none;stroke:#000000;stroke-width:2.4;stroke-linecap:butt;stroke-linejoin:miter;stroke-miterlimit:3.32551;stroke-dasharray:none;stroke-opacity:1"
         id="path136" />
      <path
         d="M 3288.7,149.898 V 4402.1"
         style="fill:none;stroke:#000000;stroke-width:2.4;stroke-linecap:butt;stroke-linejoin:miter;stroke-miterlimit:3.32551;stroke-dasharray:none;stroke-opacity:1"
         id="path138" />
      <path
         d="M 4106.5,149.898 V 4402.1"
         style="fill:none;stroke:#000000;stroke-width:2.4;stroke-linecap:butt;stroke-linejoin:miter;stroke-miterlimit:3.32551;stroke-dasharray:none;stroke-opacity:1"
         id="path140" />
      <path
         d="M 416.5,921.5 H 4668.7"
         style="fill:none;stroke:#000000;stroke-width:2.4;stroke-linecap:butt;stroke-linejoin:miter;stroke-miterlimit:3.32551;stroke-dasharray:none;stroke-opacity:1"
         id="path142" />
      <path
         d="M 416.5,1739.3 H 4668.7"
         style="fill:none;stroke:#000000;stroke-width:2.4;stroke-linecap:butt;stroke-linejoin:miter;stroke-miterlimit:3.32551;stroke-dasharray:none;stroke-opacity:1"
         id="path144" />
      <path
         d="M 416.5,2557.1 H 4668.7"
         style="fill:none;stroke:#000000;stroke-width:2.4;stroke-linecap:butt;stroke-linejoin:miter;stroke-miterlimit:3.32551;stroke-dasharray:none;stroke-opacity:1"
         id="path146" />
      <path
         d="M 416.5,3374.9 H 4668.7"
         style="fill:none;stroke:#000000;stroke-width:2.4;stroke-linecap:butt;stroke-linejoin:miter;stroke-miterlimit:3.32551;stroke-dasharray:none;stroke-opacity:1"
         id="path148" />
      <path
         d="M 416.5,4192.7 H 4668.7"
         style="fill:none;stroke:#000000;stroke-width:2.4;stroke-linecap:butt;stroke-linejoin:miter;stroke-miterlimit:3.32551;stroke-dasharray:none;stroke-opacity:1"
         id="path150" />
      <path
         d="M 402.098,149.898 V 921.5"
         style="fill:none;stroke:#000000;stroke-width:28.8;stroke-linecap:butt;stroke-linejoin:miter;stroke-miterlimit:3.32551;stroke-dasharray:none;stroke-opacity:1"
         id="path152" />
      <path
         d="M 4683.1,149.898 V 921.5"
         style="fill:none;stroke:#000000;stroke-width:28.8;stroke-linecap:butt;stroke-linejoin:miter;stroke-miterlimit:3.32551;stroke-dasharray:none;stroke-opacity:1"
         id="path154" />
      <path
         d="m 402.098,921.5 v 817.8"
         style="fill:none;stroke:#ffffff;stroke-width:28.8;stroke-linecap:butt;stroke-linejoin:miter;stroke-miterlimit:3.32551;stroke-dasharray:none;stroke-opacity:1"
         id="path156" />
      <path
         d="m 4683.1,921.5 v 817.8"
         style="fill:none;stroke:#ffffff;stroke-width:28.8;stroke-linecap:butt;stroke-linejoin:miter;stroke-miterlimit:3.32551;stroke-dasharray:none;stroke-opacity:1"
         id="path158" />
      <path
         d="m 402.098,1739.3 v 817.8"
         style="fill:none;stroke:#000000;stroke-width:28.8;stroke-linecap:butt;stroke-linejoin:miter;stroke-miterlimit:3.32551;stroke-dasharray:none;stroke-opacity:1"
         id="path160" />
      <path
         d="m 4683.1,1739.3 v 817.8"
         style="fill:none;stroke:#000000;stroke-width:28.8;stroke-linecap:butt;stroke-linejoin:miter;stroke-miterlimit:3.32551;stroke-dasharray:none;stroke-opacity:1"
         id="path162" />
      <path
         d="m 402.098,2557.1 v 817.8"
         style="fill:none;stroke:#ffffff;stroke-width:28.8;stroke-linecap:butt;stroke-linejoin:miter;stroke-miterlimit:3.32551;stroke-dasharray:none;stroke-opacity:1"
         id="path164" />
      <path
         d="m 4683.1,2557.1 v 817.8"
         style="fill:none;stroke:#ffffff;stroke-width:28.8;stroke-linecap:butt;stroke-linejoin:miter;stroke-miterlimit:3.32551;stroke-dasharray:none;stroke-opacity:1"
         id="path166" />
      <path
         d="m 402.098,3374.9 v 817.8"
         style="fill:none;stroke:#000000;stroke-width:28.8;stroke-linecap:butt;stroke-linejoin:miter;stroke-miterlimit:3.32551;stroke-dasharray:none;stroke-opacity:1"
         id="path168" />
      <path
         d="m 4683.1,3374.9 v 817.8"
         style="fill:none;stroke:#000000;stroke-width:28.8;stroke-linecap:butt;stroke-linejoin:miter;stroke-miterlimit:3.32551;stroke-dasharray:none;stroke-opacity:1"
         id="path170" />
      <path
         d="m 402.098,4192.7 v 209.4"
         style="fill:none;stroke:#ffffff;stroke-width:28.8;stroke-linecap:butt;stroke-linejoin:miter;stroke-miterlimit:3.32551;stroke-dasharray:none;stroke-opacity:1"
         id="path172" />
      <path
         d="m 4683.1,4192.7 v 209.4"
         style="fill:none;stroke:#ffffff;stroke-width:28.8;stroke-linecap:butt;stroke-linejoin:miter;stroke-miterlimit:3.32551;stroke-dasharray:none;stroke-opacity:1"
         id="path174" />
      <path
         d="M 416.5,135.5 H 835.297"
         style="fill:none;stroke:#000000;stroke-width:28.8;stroke-linecap:butt;stroke-linejoin:miter;stroke-miterlimit:3.32551;stroke-dasharray:none;stroke-opacity:1"
         id="path176" />
      <path
         d="M 416.5,4416.5 H 835.297"
         style="fill:none;stroke:#000000;stroke-width:28.8;stroke-linecap:butt;stroke-linejoin:miter;stroke-miterlimit:3.32551;stroke-dasharray:none;stroke-opacity:1"
         id="path178" />
      <path
         d="M 835.297,135.5 H 1653.1"
         style="fill:none;stroke:#ffffff;stroke-width:28.8;stroke-linecap:butt;stroke-linejoin:miter;stroke-miterlimit:3.32551;stroke-dasharray:none;stroke-opacity:1"
         id="path180" />
      <path
         d="M 835.297,4416.5 H 1653.1"
         style="fill:none;stroke:#ffffff;stroke-width:28.8;stroke-linecap:butt;stroke-linejoin:miter;stroke-miterlimit:3.32551;stroke-dasharray:none;stroke-opacity:1"
         id="path182" />
      <path
         d="m 1653.1,135.5 h 817.8"
         style="fill:none;stroke:#000000;stroke-width:28.8;stroke-linecap:butt;stroke-linejoin:miter;stroke-miterlimit:3.32551;stroke-dasharray:none;stroke-opacity:1"
         id="path184" />
      <path
         d="m 1653.1,4416.5 h 817.8"
         style="fill:none;stroke:#000000;stroke-width:28.8;stroke-linecap:butt;stroke-linejoin:miter;stroke-miterlimit:3.32551;stroke-dasharray:none;stroke-opacity:1"
         id="path186" />
      <path
         d="m 2470.9,135.5 h 817.8"
         style="fill:none;stroke:#ffffff;stroke-width:28.8;stroke-linecap:butt;stroke-linejoin:miter;stroke-miterlimit:3.32551;stroke-dasharray:none;stroke-opacity:1"
         id="path188" />
      <path
         d="m 2470.9,4416.5 h 817.8"
         style="fill:none;stroke:#ffffff;stroke-width:28.8;stroke-linecap:butt;stroke-linejoin:miter;stroke-miterlimit:3.32551;stroke-dasharray:none;stroke-opacity:1"
         id="path190" />
      <path
         d="m 3288.7,135.5 h 817.8"
         style="fill:none;stroke:#000000;stroke-width:28.8;stroke-linecap:butt;stroke-linejoin:miter;stroke-miterlimit:3.32551;stroke-dasharray:none;stroke-opacity:1"
         id="path192" />
      <path
         d="m 3288.7,4416.5 h 817.8"
         style="fill:none;stroke:#000000;stroke-width:28.8;stroke-linecap:butt;stroke-linejoin:miter;stroke-miterlimit:3.32551;stroke-dasharray:none;stroke-opacity:1"
         id="path194" />
      <path
         d="m 4106.5,135.5 h 562.2"
         style="fill:none;stroke:#ffffff;stroke-width:28.8;stroke-linecap:butt;stroke-linejoin:miter;stroke-miterlimit:3.32551;stroke-dasharray:none;stroke-opacity:1"
         id="path196" />
      <path
         d="m 4106.5,4416.5 h 562.2"
         style="fill:none;stroke:#ffffff;stroke-width:28.8;stroke-linecap:butt;stroke-linejoin:miter;stroke-miterlimit:3.32551;stroke-dasharray:none;stroke-opacity:1"
         id="path198" />
      <path
         d="M 387.699,149.898 H 4697.5"
         style="fill:none;stroke:#000000;stroke-width:3;stroke-linecap:butt;stroke-linejoin:miter;stroke-miterlimit:3.32551;stroke-dasharray:none;stroke-opacity:1"
         id="path200" />
      <path
         d="M 387.699,121.098 H 4697.5"
         style="fill:none;stroke:#000000;stroke-width:3;stroke-linecap:butt;stroke-linejoin:miter;stroke-miterlimit:3.32551;stroke-dasharray:none;stroke-opacity:1"
         id="path202" />
      <path
         d="M 4668.7,121.098 V 4430.9"
         style="fill:none;stroke:#000000;stroke-width:3;stroke-linecap:butt;stroke-linejoin:miter;stroke-miterlimit:3.32551;stroke-dasharray:none;stroke-opacity:1"
         id="path204" />
      <path
         d="M 4697.5,121.098 V 4430.9"
         style="fill:none;stroke:#000000;stroke-width:3;stroke-linecap:butt;stroke-linejoin:miter;stroke-miterlimit:3.32551;stroke-dasharray:none;stroke-opacity:1"
         id="path206" />
      <path
         d="M 4697.5,4402.1 H 387.699"
         style="fill:none;stroke:#000000;stroke-width:3;stroke-linecap:butt;stroke-linejoin:miter;stroke-miterlimit:3.32551;stroke-dasharray:none;stroke-opacity:1"
         id="path208" />
      <path
         d="M 4697.5,4430.9 H 387.699"
         style="fill:none;stroke:#000000;stroke-width:3;stroke-linecap:butt;stroke-linejoin:miter;stroke-miterlimit:3.32551;stroke-dasharray:none;stroke-opacity:1"
         id="path210" />
      <path
         d="M 416.5,4430.9 V 121.098"
         style="fill:none;stroke:#000000;stroke-width:3;stroke-linecap:butt;stroke-linejoin:miter;stroke-miterlimit:3.32551;stroke-dasharray:none;stroke-opacity:1"
         id="path212" />
      <path
         d="M 387.699,4430.9 V 121.098"
         style="fill:none;stroke:#000000;stroke-width:3;stroke-linecap:butt;stroke-linejoin:miter;stroke-miterlimit:3.32551;stroke-dasharray:none;stroke-opacity:1"
         id="path214" />
      <g
         id="g216">
        <g
           id="g218"
           clip-path="url(#clipPath222)">
          <path
             d="m 2512.18,2245.57 h 60.2461 v 60.2461 H 2512.18 Z"
             style="fill:#8b0000;fill-opacity:1;fill-rule:nonzero;stroke:none"
             id="path224" />
          <path
             d="m 2512.18,2245.57 h 60.2461 v 60.2461 H 2512.18 Z"
             style="fill:none;stroke:#000000;stroke-width:2.4;stroke-linecap:butt;stroke-linejoin:miter;stroke-miterlimit:3.32551;stroke-dasharray:none;stroke-opacity:1"
             id="path226" />
          <g
             id="g228"
             transform="scale(10)">
            <text
               xml:space="preserve"
               transform="matrix(1,0,0,-1,227.05,215.657)"
               style="font-variant:normal;font-weight:bold;font-size:12px;font-family:'Courier New';-inkscape-font-specification:Courier-Bold;writing-mode:lr-tb;fill:#000000;fill-opacity:1;fill-rule:nonzero;stroke:none"
               id="text360"><tspan
                 x="0 7.1999998 14.4 21.6 28.799999 0 7.1999998 14.4 21.6 28.799999"
                 y="0"
                 id="tspan230">RCEFFRCEFF</tspan><tspan
                 x="71.579697 78.779701 85.979698 93.179703 100.3797 71.579697 78.779701 85.979698 93.179703 100.3797"
                 y="-21.947701"
                 id="tspan232">BURZLBURZL</tspan><tspan
                 x="-15.9 -8.6999998 -1.5 5.6999998 12.9"
                 y="25.5476"
                 id="tspan234">RDDC8</tspan><tspan
                 x="102.18 109.38 116.58 102.18 109.38 116.58"
                 y="-1.7399"
                 id="tspan236">CLLCLL</tspan><tspan
                 x="8.8202 16.020201 23.2202 30.4202 8.8202 16.020201 23.2202 30.4202"
                 y="40.692101"
                 id="tspan238">KAMMKAMM</tspan><tspan
                 x="-35.100101 -27.900101 -20.7001 -13.5001 -6.3000998 -35.100101 -27.900101 -20.7001 -13.5001 -6.3000998"
                 y="-37.380199"
                 id="tspan240">LANDSLANDS</tspan><tspan
                 x="-13.7399 -6.5398998 0.66009998 7.8600998 15.0601"
                 y="43.247501"
                 id="tspan242">RD336</tspan><tspan
                 x="-5.75982 1.4401799 8.6401796 15.84018 -5.75982 1.4401799 8.6401796 15.84018"
                 y="-59.147499"
                 id="tspan244">MUHBMUHB</tspan><tspan
                 x="32.520279 39.72028 46.92028 54.120281 32.520279 39.72028 46.92028 54.120281"
                 y="54.407501"
                 id="tspan246">ABG1ABG1</tspan><tspan
                 x="-41.100021 -33.900021 -26.70002 -19.500019 -12.30002"
                 y="40.2118"
                 id="tspan248">ZEITZ</tspan><tspan
                 x="14.88008 22.08008 29.280081 36.48008 14.88008 22.08008 29.280081 36.48008"
                 y="58.0196"
                 id="tspan250">MODWMODW</tspan><tspan
                 x="43.74028 50.940281 58.140282 65.340279 43.74028 50.940281 58.140282 65.340279"
                 y="66.611794"
                 id="tspan252">ANNAANNA</tspan><tspan
                 x="69.660179 76.860184 84.060181 91.260178 98.460182"
                 y="63.827419"
                 id="tspan254">R9671</tspan><tspan
                 x="-50.039822 -42.839821 -35.63982 -28.439819 -50.039822 -42.839821 -35.63982 -28.439819"
                 y="51.59972"
                 id="tspan256">GERAGERA</tspan><tspan
                 x="-99.059723 -91.859718 -84.659721 -77.459717 -99.059723 -91.859718 -84.659721 -77.459717"
                 y="16.75202"
                 id="tspan258">NEUBNEUB</tspan><tspan
                 x="25.32028 32.520279 39.72028 46.92028 54.120281 25.32028 32.520279 39.72028 46.92028 54.120281"
                 y="81.52742"
                 id="tspan260">R4238R4238</tspan><tspan
                 x="-17.879721 -10.67972 -3.4797201 3.7202799 -17.879721 -10.67972 -3.4797201 3.7202799"
                 y="76.334061"
                 id="tspan262">HKWDHKWD</tspan><tspan
                 x="151.08028 158.28027 165.48029 172.68028 179.88028 151.08028 158.28027 165.48029 172.68028 179.88028"
                 y="40.24736"
                 id="tspan264">R3215R3215</tspan><tspan
                 x="-48.479721 -41.27972 -34.07972 -26.879721 -48.479721 -41.27972 -34.07972 -26.879721"
                 y="82.871964"
                 id="tspan266">MLFHMLFH</tspan><tspan
                 x="-109.01992 -101.81992 -94.619919 -87.419922 -109.01992 -101.81992 -94.619919 -87.419922"
                 y="51.491859"
                 id="tspan268">TAUTTAUT</tspan><tspan
                 x="-29.03982 -21.839821 -14.63982 -7.4398198 -0.23982 -29.03982 -21.839821 -14.63982 -7.4398198 -0.23982"
                 y="91.919563"
                 id="tspan270">GEIDOGEIDO</tspan><tspan
                 x="82.38018 89.580177 96.780182 103.98018 111.18018 82.38018 89.580177 96.780182 103.98018 111.18018"
                 y="92.399635"
                 id="tspan272">MEINSMEINS</tspan><tspan
                 x="154.20007 161.40009 168.60008 175.80008 183.00008 156.3602 163.5602 170.76019 177.96021 185.1602 156.3602 163.5602 170.76019 177.96021 185.1602"
                 y="62.387539"
                 id="tspan274">R7388R3384R3384</tspan><tspan
                 x="-9.8999205 -2.6999199 4.5000801 11.70008 -9.8999205 -2.6999199 4.5000801 11.70008"
                 y="98.29184"
                 id="tspan276">FRAUFRAU</tspan><tspan
                 x="158.22008 165.42007 172.62009 179.82008 187.02008 158.22008 165.42007 172.62009 179.82008 187.02008"
                 y="63.827339"
                 id="tspan278">R24E9R24E9</tspan><tspan
                 x="4.2000799 11.40008 18.60008 25.800079 4.2000799 11.40008 18.60008 25.800079"
                 y="101.45974"
                 id="tspan280">SCHFSCHF</tspan><tspan
                 x="167.22008 174.42007 181.62009 188.82008"
                 y="-68.545265"
                 id="tspan282">MOB7</tspan><tspan
                 x="164.69977 171.89977 179.09978 186.29977"
                 y="-71.353073"
                 id="tspan284">MOB9</tspan><tspan
                 x="-25.80023 -18.600229 -11.40023 -4.2002301 -25.80023 -18.600229 -11.40023 -4.2002301"
                 y="99.706924"
                 id="tspan286">GRZ1GRZ1</tspan><tspan
                 x="-142.68024 -135.48022 -128.28023 -121.08023 -142.68024 -135.48022 -128.28023 -121.08023"
                 y="-36.709072"
                 id="tspan288">WIMMWIMM</tspan><tspan
                 x="188.21977 195.41977 202.61977 209.81976 217.01978 188.21977 195.41977 202.61977 209.81976 217.01978"
                 y="41.746429"
                 id="tspan290">R0B73R0B73</tspan><tspan
                 x="178.79945 185.99947 193.19946 200.39946 178.79945 185.99947 193.19946 200.39946"
                 y="-65.053574"
                 id="tspan292">MOB2MOB2</tspan><tspan
                 x="103.43966 110.63966 117.83966 125.03966 132.23965 103.43966 110.63966 117.83966 125.03966 132.23965"
                 y="102.16643"
                 id="tspan294">RA6B1RA6B1</tspan><tspan
                 x="21.599461 28.799459 35.999458 43.199459 50.39946 21.599461 28.799459 35.999458 43.199459 50.39946"
                 y="112.48633"
                 id="tspan296">R2B46R2B46</tspan><tspan
                 x="23.819771 31.01977 38.219769 45.419769 23.819771 31.01977 38.219769 45.419769"
                 y="112.69063"
                 id="tspan298">LEUTLEUT</tspan><tspan
                 x="41.579571 48.779572 55.979568 63.179569 70.37957"
                 y="115.42618"
                 id="tspan300">R0045</tspan><tspan
                 x="-65.460426 -58.260429 -51.060429 -65.460426 -58.260429 -51.060429"
                 y="102.37068"
                 id="tspan302">ZEUZEU</tspan><tspan
                 x="52.739571 59.939571 67.139572 74.339569 81.539574 52.739571 59.939571 67.139572 74.339569 81.539574"
                 y="116.86638"
                 id="tspan304">R30E6R30E6</tspan><tspan
                 x="192.53957 199.73956 206.93958 214.13957 221.33957 192.53957 199.73956 206.93958 214.13957 221.33957"
                 y="-73.693626"
                 id="tspan306">MOB10MOB10</tspan><tspan
                 x="127.49937 134.69937 141.89937 149.09937 156.29938"
                 y="106.54638"
                 id="tspan308">R7B53</tspan><tspan
                 x="100.01967 107.21967 114.41967 121.61967 128.81967 100.01967 107.21967 114.41967 121.61967 128.81967"
                 y="114.7788"
                 id="tspan310">FROHNFROHN</tspan><tspan
                 x="223.43967 230.63966 237.83968 245.03967 252.23967"
                 y="41.746395"
                 id="tspan312">R92D1</tspan><tspan
                 x="64.319672 71.519669 78.719673 85.91967 93.119667"
                 y="125.5542"
                 id="tspan314">RFB5D</tspan><tspan
                 x="3.77947 10.97947 18.17947 25.379471 32.579472 3.77947 10.97947 18.17947 25.379471 32.579472"
                 y="127.18662"
                 id="tspan316">RE2BCRE2BC</tspan><tspan
                 x="-12.12053 -4.9205298 2.27947 9.4794703 16.67947 -12.12053 -4.9205298 2.27947 9.4794703 16.67947"
                 y="125.74639"
                 id="tspan318">R64A7R64A7</tspan><tspan
                 x="227.87947 235.07947 242.27946 249.47948 256.67947"
                 y="41.278786"
                 id="tspan320">SEACE</tspan><tspan
                 x="23.51947 30.719469 37.919472 45.119469 52.319469 23.51947 30.719469 37.919472 45.119469 52.319469"
                 y="131.6265"
                 id="tspan322">R8FEER8FEE</tspan><tspan
                 x="-181.86053 -174.66052 -167.46053 -160.26053 -153.06053 -181.86053 -174.66052 -167.46053 -160.26053 -153.06053"
                 y="-62.881516"
                 id="tspan324">FALKSFALKS</tspan><tspan
                 x="-36.00053 -28.800529 -21.600531 -36.00053 -28.800529 -21.600531"
                 y="132.67049"
                 id="tspan326">PLNPLN</tspan><tspan
                 x="-37.440369 -30.24037 -23.040371 -15.84037 -8.6403704"
                 y="134.56619"
                 id="tspan328">R6E5F</tspan><tspan
                 x="-11.52047 -4.3204699 2.87953 10.07953 -11.52047 -4.3204699 2.87953 10.07953"
                 y="138.7326"
                 id="tspan330">WERDWERD</tspan><tspan
                 x="-124.50047 -117.30047 -110.10047 -124.50047 -117.30047 -110.10047"
                 y="106.4982"
                 id="tspan332">MOXMOX</tspan><tspan
                 x="-132.96063 -125.76063 -118.56063 -111.36063 -104.16063 -132.96063 -125.76063 -118.56063 -111.36063 -104.16063"
                 y="103.85836"
                 id="tspan334">RANISRANIS</tspan><tspan
                 x="172.43938 179.63937 186.83937 194.03937 172.43938 179.63937 186.83937 194.03937"
                 y="112.85836"
                 id="tspan336">HSKCHSKC</tspan><tspan
                 x="13.67937 20.87937 28.07937 35.279369 13.67937 20.87937 28.07937 35.279369"
                 y="144.13026"
                 id="tspan338">TANNTANN</tspan><tspan
                 x="4.3196001 11.5196 18.719601 25.9196 4.3196001 11.5196 18.719601 25.9196"
                 y="144.67244"
                 id="tspan340">MULDMULD</tspan><tspan
                 x="170.2196 177.4196 184.6196 191.8196 170.2196 177.4196 184.6196 191.8196"
                 y="-130.27356"
                 id="tspan342">A807A807</tspan><tspan
                 x="223.6196 230.8196 238.01961 245.2196 252.4196"
                 y="88.906441"
                 id="tspan344">R0602</tspan><tspan
                 x="-7.5004001 -0.30039999 6.8996 14.0996 -7.5004001 -0.30039999 6.8996 14.0996"
                 y="152.75874"
                 id="tspan346">GUNZGUNZ</tspan><tspan
                 x="-39.3008 -32.1008 -24.900801 -17.7008 -39.3008 -32.1008 -24.900801 -17.7008"
                 y="154.45093"
                 id="tspan348">TRIBTRIB</tspan><tspan
                 x="97.619202 104.8192 112.0192 119.2192 126.4192 97.619202 104.8192 112.0192 119.2192 126.4192"
                 y="-168.91307"
                 id="tspan350">R8219R511A</tspan><tspan
                 x="-0.241 6.9590001 14.159 21.358999 -0.241 6.9590001 14.159 21.358999"
                 y="165.01093"
                 id="tspan352">WERNWERN</tspan><tspan
                 x="87.359001 94.558998 101.759 108.959 116.159"
                 y="-174.85307"
                 id="tspan354">RC342</tspan><tspan
                 x="-9.9007998 -2.7007999 4.4991999 11.6992 -9.9007998 -2.7007999 4.4991999 11.6992"
                 y="173.93893"
                 id="tspan356">ROHRROHR</tspan><tspan
                 x="103.7392 110.9392 118.1392 125.3392 132.5392"
                 y="-180.73306"
                 id="tspan358">R0F05</tspan></text>
          </g>
        </g>
      </g>
      <path
         d="m 3984.66,4159.1 h 627.633 v 186.602 H 3984.66 Z"
         style="fill:#ffffff;fill-opacity:1;fill-rule:nonzero;stroke:none"
         id="path362" />
      <path
         d="m 3984.66,4159.1 h 627.633 v 186.602 H 3984.66 Z"
         style="fill:none;stroke:#000000;stroke-width:10.2;stroke-linecap:butt;stroke-linejoin:miter;stroke-miterlimit:3.32551;stroke-dasharray:none;stroke-opacity:1"
         id="path364" />
      <path
         d="m 4037.34,4221.98 h 60.2422 v 60.2461 H 4037.34 Z"
         style="fill:#8b0000;fill-opacity:1;fill-rule:nonzero;stroke:none"
         id="path366" />
      <path
         d="m 4037.34,4221.98 h 60.2422 v 60.2461 H 4037.34 Z"
         style="fill:none;stroke:#000000;stroke-width:2.4;stroke-linecap:butt;stroke-linejoin:miter;stroke-miterlimit:3.32551;stroke-dasharray:none;stroke-opacity:1"
         id="path368" />
      <g
         id="g370"
         transform="scale(10)">
        <text
           xml:space="preserve"
           transform="matrix(1,0,0,-1,416.407,421.85)"
           style="font-variant:normal;font-weight:normal;font-size:9.66px;font-family:Helvetica;-inkscape-font-specification:Helvetica;writing-mode:lr-tb;fill:#000000;fill-opacity:1;fill-rule:nonzero;stroke:none"
           id="text374"><tspan
             x="0 6.4432201 11.81418 13.9587 18.7887 24.15966 29.530621 32.216099 37.587059"
             y="0"
             id="tspan372">Epicenter</tspan></text>
      </g>
    </g>
  </g>
</svg>
