<?xml version="1.0" encoding="UTF-8" standalone="no"?>
<!-- Created with Inkscape (http://www.inkscape.org/) -->

<svg
   version="1.1"
   id="svg2"
   width="672"
   height="672"
   viewBox="0 0 672 672"
   xmlns="http://www.w3.org/2000/svg"
   xmlns:svg="http://www.w3.org/2000/svg">
  <defs
     id="defs6">
    <clipPath
       clipPathUnits="userSpaceOnUse"
       id="clipPath22">
      <path
         d="M 257.51953,442.74125 118.81402,385.28754 61.360312,246.58203 118.81402,107.87652 257.51953,50.422812 396.22504,107.87652 453.67875,246.58203 396.22504,385.28754 Z"
         id="path20" />
    </clipPath>
    <clipPath
       clipPathUnits="userSpaceOnUse"
       id="clipPath32">
      <path
         d="M 257.51953,442.74125 118.81402,385.28754 61.360312,246.58203 118.81402,107.87652 257.51953,50.422812 396.22504,107.87652 453.67875,246.58203 396.22504,385.28754 Z"
         id="path30" />
    </clipPath>
    <clipPath
       clipPathUnits="userSpaceOnUse"
       id="clipPath58">
      <path
         d="M 257.51953,442.74125 118.81402,385.28754 61.360312,246.58203 118.81402,107.87652 257.51953,50.422812 396.22504,107.87652 453.67875,246.58203 396.22504,385.28754 Z"
         id="path56" />
    </clipPath>
    <clipPath
       clipPathUnits="userSpaceOnUse"
       id="clipPath76">
      <path
         d="M 257.51953,442.74125 118.81402,385.28754 61.360312,246.58203 118.81402,107.87652 257.51953,50.422812 396.22504,107.87652 453.67875,246.58203 396.22504,385.28754 Z"
         id="path74" />
    </clipPath>
    <clipPath
       clipPathUnits="userSpaceOnUse"
       id="clipPath94">
      <path
         d="M 257.51953,442.74125 118.81402,385.28754 61.360312,246.58203 118.81402,107.87652 257.51953,50.422812 396.22504,107.87652 453.67875,246.58203 396.22504,385.28754 Z"
         id="path92" />
    </clipPath>
    <clipPath
       clipPathUnits="userSpaceOnUse"
       id="clipPath112">
      <path
         d="M 257.51953,442.74125 118.81402,385.28754 61.360312,246.58203 118.81402,107.87652 257.51953,50.422812 396.22504,107.87652 453.67875,246.58203 396.22504,385.28754 Z"
         id="path110" />
    </clipPath>
    <clipPath
       clipPathUnits="userSpaceOnUse"
       id="clipPath130">
      <path
         d="M 257.51953,442.74125 118.81402,385.28754 61.360312,246.58203 118.81402,107.87652 257.51953,50.422812 396.22504,107.87652 453.67875,246.58203 396.22504,385.28754 Z"
         id="path128" />
    </clipPath>
    <clipPath
       clipPathUnits="userSpaceOnUse"
       id="clipPath148">
      <path
         d="M 257.51953,442.74125 118.81402,385.28754 61.360312,246.58203 118.81402,107.87652 257.51953,50.422812 396.22504,107.87652 453.67875,246.58203 396.22504,385.28754 Z"
         id="path146" />
    </clipPath>
    <clipPath
       clipPathUnits="userSpaceOnUse"
       id="clipPath166">
      <path
         d="M 257.51953,442.74125 118.81402,385.28754 61.360312,246.58203 118.81402,107.87652 257.51953,50.422812 396.22504,107.87652 453.67875,246.58203 396.22504,385.28754 Z"
         id="path164" />
    </clipPath>
    <clipPath
       clipPathUnits="userSpaceOnUse"
       id="clipPath184">
      <path
         d="M 257.51953,442.74125 118.81402,385.28754 61.360312,246.58203 118.81402,107.87652 257.51953,50.422812 396.22504,107.87652 453.67875,246.58203 396.22504,385.28754 Z"
         id="path182" />
    </clipPath>
    <clipPath
       clipPathUnits="userSpaceOnUse"
       id="clipPath202">
      <path
         d="M 257.51953,442.74125 118.81402,385.28754 61.360312,246.58203 118.81402,107.87652 257.51953,50.422812 396.22504,107.87652 453.67875,246.58203 396.22504,385.28754 Z"
         id="path200" />
    </clipPath>
    <clipPath
       clipPathUnits="userSpaceOnUse"
       id="clipPath220">
      <path
         d="M 257.51953,442.74125 118.81402,385.28754 61.360312,246.58203 118.81402,107.87652 257.51953,50.422812 396.22504,107.87652 453.67875,246.58203 396.22504,385.28754 Z"
         id="path218" />
    </clipPath>
    <clipPath
       clipPathUnits="userSpaceOnUse"
       id="clipPath238">
      <path
         d="M 257.51953,442.74125 118.81402,385.28754 61.360312,246.58203 118.81402,107.87652 257.51953,50.422812 396.22504,107.87652 453.67875,246.58203 396.22504,385.28754 Z"
         id="path236" />
    </clipPath>
    <clipPath
       clipPathUnits="userSpaceOnUse"
       id="clipPath256">
      <path
         d="M 257.51953,442.74125 118.81402,385.28754 61.360312,246.58203 118.81402,107.87652 257.51953,50.422812 396.22504,107.87652 453.67875,246.58203 396.22504,385.28754 Z"
         id="path254" />
    </clipPath>
    <clipPath
       clipPathUnits="userSpaceOnUse"
       id="clipPath274">
      <path
         d="M 257.51953,442.74125 118.81402,385.28754 61.360312,246.58203 118.81402,107.87652 257.51953,50.422812 396.22504,107.87652 453.67875,246.58203 396.22504,385.28754 Z"
         id="path272" />
    </clipPath>
  </defs>
  <g
     id="g10"
     transform="matrix(1.3333333,0,0,-1.3333333,0,672)">
    <path
       d="M 0,0 H 504 V 504 H 0 Z"
       style="fill:#ffffff;fill-opacity:1;fill-rule:nonzero;stroke:none"
       id="path12" />
    <path
       d="M 257.51953,442.74125 118.81402,385.28754 61.360312,246.58203 118.81402,107.87652 257.51953,50.422812 396.22504,107.87652 453.67875,246.58203 396.22504,385.28754 Z"
       style="fill:#e8e8e8;fill-opacity:1;fill-rule:nonzero;stroke:none"
       id="path14" />
    <g
       id="g16">
      <g
         id="g18"
         clip-path="url(#clipPath22)">
        <path
           d="M 257.51953,381.32947 178.46641,325.63516 79.975492,246.58203 127.45823,116.52073 257.51953,86.159148 372.39845,131.70311 340.63456,246.58203 396.22504,385.28754 Z"
           style="fill:#f78410;fill-opacity:0.25;fill-rule:nonzero;stroke:none"
           id="path24" />
      </g>
    </g>
    <g
       id="g26">
      <g
         id="g28"
         clip-path="url(#clipPath32)">
        <path
           d="m 257.51953,246.58203 v 24.5199 24.51991 24.5199 24.5199 24.5199 24.5199 24.51991 24.5199"
           style="fill:none;stroke:#b0b0b0;stroke-width:0.8;stroke-linecap:square;stroke-linejoin:round;stroke-miterlimit:10;stroke-dasharray:none;stroke-opacity:1"
           id="path34" />
      </g>
    </g>
    <g
       id="g36">
      <g
         id="g38"
         transform="translate(204.51953,452.87406)">
        <text
           xml:space="preserve"
           transform="matrix(1,0,0,-1,0,0.359375)"
           style="font-variant:normal;font-weight:normal;font-size:14px;font-family:'DejaVu Sans';-inkscape-font-specification:DejaVuSans;writing-mode:lr-tb;fill:#000000;fill-opacity:1;fill-rule:nonzero;stroke:none"
           id="text42"><tspan
             x="0 8.9072266 13.357422 18.40918 22.859375 31.746094 40.359375 45.848633 51.310547 61.085938 69.651367 77.936523"
             y="0"
             id="tspan40">1 - det(Cov[</tspan></text>
        <text
           xml:space="preserve"
           transform="matrix(1,0,0,-1,83.398437,0.359375)"
           style="font-variant:normal;font-weight:bold;font-size:14px;font-family:'DejaVu Sans';-inkscape-font-specification:DejaVuSans-Bold;writing-mode:lr-tb;fill:#000000;fill-opacity:1;fill-rule:nonzero;stroke:none"
           id="text46"><tspan
             x="0"
             y="0"
             id="tspan44">X</tspan></text>
        <text
           xml:space="preserve"
           transform="matrix(1,0,0,-1,94.192383,0.359375)"
           style="font-variant:normal;font-weight:normal;font-size:14px;font-family:'DejaVu Sans';-inkscape-font-specification:DejaVuSans;writing-mode:lr-tb;fill:#000000;fill-opacity:1;fill-rule:nonzero;stroke:none"
           id="text50"><tspan
             x="0 5.4619141"
             y="0"
             id="tspan48">])</tspan></text>
      </g>
    </g>
    <g
       id="g52">
      <g
         id="g54"
         clip-path="url(#clipPath58)">
        <path
           d="m 257.51953,246.58203 -17.33819,17.33819 -17.33819,17.33819 -17.33819,17.33819 -17.33819,17.33819 -17.33819,17.33819 -17.33818,17.33819 -17.33819,17.33819 -17.33819,17.33818"
           style="fill:none;stroke:#b0b0b0;stroke-width:0.8;stroke-linecap:square;stroke-linejoin:round;stroke-miterlimit:10;stroke-dasharray:none;stroke-opacity:1"
           id="path60" />
      </g>
    </g>
    <g
       id="g62">
      <g
         id="g64"
         transform="translate(75.203585,391.31985)">
        <text
           xml:space="preserve"
           transform="scale(1,-1)"
           style="font-variant:normal;font-weight:normal;font-size:14px;font-family:'DejaVu Sans';-inkscape-font-specification:DejaVuSans;writing-mode:lr-tb;fill:#000000;fill-opacity:1;fill-rule:nonzero;stroke:none"
           id="text68"><tspan
             x="0 8.8900003 14.378 22.959999 27.412001 38.192001 46.801998 55.678001 62.972"
             y="0"
             id="tspan66">Sta.Dens.</tspan></text>
      </g>
    </g>
    <g
       id="g70">
      <g
         id="g72"
         clip-path="url(#clipPath76)">
        <path
           d="m 257.51953,246.58203 h -24.5199 -24.5199 -24.51991 -24.5199 -24.5199 -24.5199 -24.519905 -24.519903"
           style="fill:none;stroke:#b0b0b0;stroke-width:0.8;stroke-linecap:square;stroke-linejoin:round;stroke-miterlimit:10;stroke-dasharray:none;stroke-opacity:1"
           id="path78" />
      </g>
    </g>
    <g
       id="g80">
      <g
         id="g82"
         transform="translate(9.54,242.71484)">
        <text
           xml:space="preserve"
           transform="scale(1,-1)"
           style="font-variant:normal;font-weight:normal;font-size:14px;font-family:'DejaVu Sans';-inkscape-font-specification:DejaVuSans;writing-mode:lr-tb;fill:#000000;fill-opacity:1;fill-rule:nonzero;stroke:none"
           id="text86"><tspan
             x="0 8.9040003 13.356 18.41 22.862 32.438 39.787998 44.240002 54.487999 63.363998 67.255997 71.168373"
             y="0"
             id="tspan84">1 - Az.Unif.</tspan></text>
      </g>
    </g>
    <g
       id="g88">
      <g
         id="g90"
         clip-path="url(#clipPath94)">
        <path
           d="M 257.51953,246.58203 240.18134,229.24384 222.84315,211.90565 205.50496,194.56746 188.16677,177.22927 170.82858,159.89108 153.4904,142.5529 136.15221,125.21471 118.81402,107.87652"
           style="fill:none;stroke:#b0b0b0;stroke-width:0.8;stroke-linecap:square;stroke-linejoin:round;stroke-miterlimit:10;stroke-dasharray:none;stroke-opacity:1"
           id="path96" />
      </g>
    </g>
    <g
       id="g98">
      <g
         id="g100"
         transform="translate(72.641085,94.109835)">
        <text
           xml:space="preserve"
           transform="scale(1,-1)"
           style="font-variant:normal;font-weight:normal;font-size:14px;font-family:'DejaVu Sans';-inkscape-font-specification:DejaVuSans;writing-mode:lr-tb;fill:#000000;fill-opacity:1;fill-rule:nonzero;stroke:none"
           id="text104"><tspan
             x="0 8.9040003 13.356 18.41 22.862 32.438 39.787998 44.240002 55.09 63.672001"
             y="0"
             id="tspan102">1 - Az.Gap</tspan></text>
      </g>
    </g>
    <g
       id="g106">
      <g
         id="g108"
         clip-path="url(#clipPath112)">
        <path
           d="m 257.51953,246.58203 v -24.5199 -24.5199 -24.51991 -24.5199 -24.5199 V 99.462617 74.942715 50.422812"
           style="fill:none;stroke:#b0b0b0;stroke-width:0.8;stroke-linecap:square;stroke-linejoin:round;stroke-miterlimit:10;stroke-dasharray:none;stroke-opacity:1"
           id="path114" />
      </g>
    </g>
    <g
       id="g116">
      <g
         id="g118"
         transform="translate(206.41797,32.555625)">
        <text
           xml:space="preserve"
           transform="scale(1,-1)"
           style="font-variant:normal;font-weight:normal;font-size:14px;font-family:'DejaVu Sans';-inkscape-font-specification:DejaVuSans;writing-mode:lr-tb;fill:#000000;fill-opacity:1;fill-rule:nonzero;stroke:none"
           id="text122"><tspan
             x="0 8.9040003 13.356 18.41 22.862 31.752001 40.362 48.062 52.514 62.09 69.440002 73.891998 84.741997 93.323997"
             y="0"
             id="tspan120">1 - Sec.Az.Gap</tspan></text>
      </g>
    </g>
    <g
       id="g124">
      <g
         id="g126"
         clip-path="url(#clipPath130)">
        <path
           d="m 257.51953,246.58203 17.33819,-17.33819 17.33819,-17.33819 17.33819,-17.33819 17.33819,-17.33819 17.33819,-17.33819 17.33819,-17.33818 17.33819,-17.33819 17.33818,-17.33819"
           style="fill:none;stroke:#b0b0b0;stroke-width:0.8;stroke-linecap:square;stroke-linejoin:round;stroke-miterlimit:10;stroke-dasharray:none;stroke-opacity:1"
           id="path132" />
      </g>
    </g>
    <g
       id="g134">
      <g
         id="g136"
         transform="translate(364.9136,94.109835)">
        <text
           xml:space="preserve"
           transform="scale(1,-1)"
           style="font-variant:normal;font-weight:normal;font-size:14px;font-family:'DejaVu Sans';-inkscape-font-specification:DejaVuSans;writing-mode:lr-tb;fill:#000000;fill-opacity:1;fill-rule:nonzero;stroke:none"
           id="text140"><tspan
             x="0 8.9040003 13.356 18.41 22.862 33.334 41.944 50.526001 54.998749 59.450748 68.340752 73.828751"
             y="0"
             id="tspan138">1 - Near.Sta</tspan></text>
      </g>
    </g>
    <g
       id="g142">
      <g
         id="g144"
         clip-path="url(#clipPath148)">
        <path
           d="m 257.51953,246.58203 h 24.5199 24.51991 24.5199 24.5199 24.5199 24.5199 24.51991 24.5199"
           style="fill:none;stroke:#b0b0b0;stroke-width:0.8;stroke-linecap:square;stroke-linejoin:round;stroke-miterlimit:10;stroke-dasharray:none;stroke-opacity:1"
           id="path150" />
      </g>
    </g>
    <g
       id="g152">
      <g
         id="g154"
         transform="translate(440.8975,242.71484)">
        <text
           xml:space="preserve"
           transform="scale(1,-1)"
           style="font-variant:normal;font-weight:normal;font-size:14px;font-family:'DejaVu Sans';-inkscape-font-specification:DejaVuSans;writing-mode:lr-tb;fill:#000000;fill-opacity:1;fill-rule:nonzero;stroke:none"
           id="text158"><tspan
             x="0 8.9040003 13.356 18.41 22.862 32.591999 44.674"
             y="0"
             id="tspan156">1 - RMS</tspan></text>
      </g>
    </g>
    <g
       id="g160">
      <g
         id="g162"
         clip-path="url(#clipPath166)">
        <path
           d="m 257.51953,246.58203 17.33819,17.33819 17.33819,17.33819 17.33819,17.33819 17.33819,17.33819 17.33819,17.33819 17.33819,17.33819 17.33819,17.33819 17.33818,17.33818"
           style="fill:none;stroke:#b0b0b0;stroke-width:0.8;stroke-linecap:square;stroke-linejoin:round;stroke-miterlimit:10;stroke-dasharray:none;stroke-opacity:1"
           id="path168" />
      </g>
    </g>
    <g
       id="g170">
      <g
         id="g172"
         transform="translate(381.06985,391.31985)">
        <text
           xml:space="preserve"
           transform="scale(1,-1)"
           style="font-variant:normal;font-weight:normal;font-size:14px;font-family:'DejaVu Sans';-inkscape-font-specification:DejaVuSans;writing-mode:lr-tb;fill:#000000;fill-opacity:1;fill-rule:nonzero;stroke:none"
           id="text176"><tspan
             x="0 10.472 14.924 23.069124 26.961124 34.661125 42.767124"
             y="0"
             id="tspan174">N.Picks</tspan></text>
      </g>
    </g>
    <g
       id="g178">
      <g
         id="g180"
         clip-path="url(#clipPath184)">
        <path
           d="m 257.51953,285.81387 -27.7411,-11.49074 -11.49074,-27.7411 11.49074,-27.7411 27.7411,-11.49074 27.7411,11.49074 11.49074,27.7411 -11.49074,27.7411 -27.7411,11.49074"
           style="fill:none;stroke:#b0b0b0;stroke-width:0.8;stroke-linecap:square;stroke-linejoin:round;stroke-miterlimit:10;stroke-dasharray:none;stroke-opacity:1"
           id="path186" />
      </g>
    </g>
    <g
       id="g188">
      <g
         id="g190"
         transform="translate(242.50615,285.73378)">
        <text
           xml:space="preserve"
           transform="scale(1,-1)"
           style="font-variant:normal;font-weight:normal;font-size:14px;font-family:'DejaVu Sans';-inkscape-font-specification:DejaVuSans;writing-mode:lr-tb;fill:#000000;fill-opacity:1;fill-rule:nonzero;stroke:none"
           id="text194"><tspan
             x="0 8.9040003 13.356"
             y="0"
             id="tspan192">0.2</tspan></text>
      </g>
    </g>
    <g
       id="g196">
      <g
         id="g198"
         clip-path="url(#clipPath202)">
        <path
           d="m 257.51953,325.04572 -55.4822,-22.98148 -22.98149,-55.48221 22.98149,-55.4822 55.4822,-22.98149 55.48221,22.98149 22.98148,55.4822 -22.98148,55.48221 -55.48221,22.98148"
           style="fill:none;stroke:#b0b0b0;stroke-width:0.8;stroke-linecap:square;stroke-linejoin:round;stroke-miterlimit:10;stroke-dasharray:none;stroke-opacity:1"
           id="path204" />
      </g>
    </g>
    <g
       id="g206">
      <g
         id="g208"
         transform="translate(227.49278,321.97928)">
        <text
           xml:space="preserve"
           transform="scale(1,-1)"
           style="font-variant:normal;font-weight:normal;font-size:14px;font-family:'DejaVu Sans';-inkscape-font-specification:DejaVuSans;writing-mode:lr-tb;fill:#000000;fill-opacity:1;fill-rule:nonzero;stroke:none"
           id="text212"><tspan
             x="0 8.9040003 13.356"
             y="0"
             id="tspan210">0.4</tspan></text>
      </g>
    </g>
    <g
       id="g214">
      <g
         id="g216"
         clip-path="url(#clipPath220)">
        <path
           d="m 257.51953,364.27756 -83.22331,-34.47222 -34.47222,-83.22331 34.47222,-83.22331 83.22331,-34.47222 83.22331,34.47222 34.47222,83.22331 -34.47222,83.22331 -83.22331,34.47222"
           style="fill:none;stroke:#b0b0b0;stroke-width:0.8;stroke-linecap:square;stroke-linejoin:round;stroke-miterlimit:10;stroke-dasharray:none;stroke-opacity:1"
           id="path222" />
      </g>
    </g>
    <g
       id="g224">
      <g
         id="g226"
         transform="translate(212.4794,358.22477)">
        <text
           xml:space="preserve"
           transform="scale(1,-1)"
           style="font-variant:normal;font-weight:normal;font-size:14px;font-family:'DejaVu Sans';-inkscape-font-specification:DejaVuSans;writing-mode:lr-tb;fill:#000000;fill-opacity:1;fill-rule:nonzero;stroke:none"
           id="text230"><tspan
             x="0 8.9040003 13.356"
             y="0"
             id="tspan228">0.6</tspan></text>
      </g>
    </g>
    <g
       id="g232">
      <g
         id="g234"
         clip-path="url(#clipPath238)">
        <path
           d="M 257.51953,403.50941 146.55512,357.54644 100.59216,246.58203 146.55512,135.61762 257.51953,89.654656 368.48394,135.61762 414.44691,246.58203 368.48394,357.54644 257.51953,403.50941"
           style="fill:none;stroke:#b0b0b0;stroke-width:0.8;stroke-linecap:square;stroke-linejoin:round;stroke-miterlimit:10;stroke-dasharray:none;stroke-opacity:1"
           id="path240" />
      </g>
    </g>
    <g
       id="g242">
      <g
         id="g244"
         transform="translate(197.46602,394.47027)">
        <text
           xml:space="preserve"
           transform="scale(1,-1)"
           style="font-variant:normal;font-weight:normal;font-size:14px;font-family:'DejaVu Sans';-inkscape-font-specification:DejaVuSans;writing-mode:lr-tb;fill:#000000;fill-opacity:1;fill-rule:nonzero;stroke:none"
           id="text248"><tspan
             x="0 8.9040003 13.356"
             y="0"
             id="tspan246">0.8</tspan></text>
      </g>
    </g>
    <g
       id="g250">
      <g
         id="g252"
         clip-path="url(#clipPath256)">
        <path
           d="M 257.51953,442.74125 118.81402,385.28754 61.360312,246.58203 118.81402,107.87652 257.51953,50.422812 396.22504,107.87652 453.67875,246.58203 396.22504,385.28754 257.51953,442.74125"
           style="fill:none;stroke:#b0b0b0;stroke-width:0.8;stroke-linecap:square;stroke-linejoin:round;stroke-miterlimit:10;stroke-dasharray:none;stroke-opacity:1"
           id="path258" />
      </g>
    </g>
    <g
       id="g260">
      <g
         id="g262"
         transform="translate(182.45265,430.71577)">
        <text
           xml:space="preserve"
           transform="scale(1,-1)"
           style="font-variant:normal;font-weight:normal;font-size:14px;font-family:'DejaVu Sans';-inkscape-font-specification:DejaVuSans;writing-mode:lr-tb;fill:#000000;fill-opacity:1;fill-rule:nonzero;stroke:none"
           id="text266"><tspan
             x="0 8.9040003 13.356"
             y="0"
             id="tspan264">1.0</tspan></text>
      </g>
    </g>
    <g
       id="g268">
      <g
         id="g270"
         clip-path="url(#clipPath274)">
        <path
           d="M 257.51953,381.32947 178.46641,325.63516 79.975492,246.58203 127.45823,116.52073 257.51953,86.159148 372.39845,131.70311 340.63456,246.58203 396.22504,385.28754 257.51953,381.32947"
           style="fill:none;stroke:#f78410;stroke-width:1.5;stroke-linecap:square;stroke-linejoin:round;stroke-miterlimit:10;stroke-dasharray:none;stroke-opacity:1"
           id="path276" />
      </g>
    </g>
    <g
       id="g278">
      <path
         d="M 257.51953,442.74125 118.81402,385.28754 61.360312,246.58203 118.81402,107.87652 257.51953,50.422812 396.22504,107.87652 453.67875,246.58203 396.22504,385.28754 Z"
         style="fill:none;stroke:#000000;stroke-width:0.8;stroke-linecap:square;stroke-linejoin:miter;stroke-miterlimit:10;stroke-dasharray:none;stroke-opacity:1"
         id="path280" />
      <g
         id="g282"
         transform="translate(129.26172,466.75687)">
        <text
           xml:space="preserve"
           transform="scale(1,-1)"
           style="font-variant:normal;font-weight:bold;font-size:10px;font-family:'DejaVu Sans';-inkscape-font-specification:DejaVuSans-Bold;writing-mode:lr-tb;fill:#000000;fill-opacity:1;fill-rule:nonzero;stroke:none"
           id="text286"><tspan
             x="0 6.96 13.92 20.879999 27.84 31.99 38.950001 45.91 50.060001 57.02 63.98 70.800003 77.760002 84.720001 88.720001 95.68 102.64 106.64 113.6 120.56 124.36 131.32001 138.28 145.24001 152.2 159.16 166.12 173.37 177.17 180.64999 187.02 195.52 202.72 206.2 214.58 218.06 225.02 228.82001 235.78 242.74001 249.7"
             y="0"
             id="tspan284">2024-12-24T01:55:04.517789Z, LQS = 0.7287</tspan></text>
      </g>
    </g>
  </g>
</svg>
