<?xml version="1.0" encoding="UTF-8" standalone="no"?>
<!-- Created with Inkscape (http://www.inkscape.org/) -->

<svg
   version="1.1"
   id="svg2"
   width="710.896"
   height="283.31998"
   viewBox="0 0 710.896 283.31998"
   sodipodi:docname="tiebenn_logo.svg"
   inkscape:version="1.2.2 (b0a8486541, 2022-12-01)"
   xmlns:inkscape="http://www.inkscape.org/namespaces/inkscape"
   xmlns:sodipodi="http://sodipodi.sourceforge.net/DTD/sodipodi-0.dtd"
   xmlns="http://www.w3.org/2000/svg"
   xmlns:svg="http://www.w3.org/2000/svg">
  <sodipodi:namedview
     id="namedview62"
     pagecolor="#ffffff"
     bordercolor="#666666"
     borderopacity="1.0"
     inkscape:showpageshadow="2"
     inkscape:pageopacity="0.0"
     inkscape:pagecheckerboard="0"
     inkscape:deskcolor="#d1d1d1"
     showgrid="false"
     inkscape:zoom="2.4898157"
     inkscape:cx="232.1457"
     inkscape:cy="141.77756"
     inkscape:window-width="1920"
     inkscape:window-height="1006"
     inkscape:window-x="0"
     inkscape:window-y="0"
     inkscape:window-maximized="1"
     inkscape:current-layer="g130" />
  <defs
     id="defs6">
    <linearGradient
       x1="0"
       y1="0"
       x2="1"
       y2="0"
       gradientUnits="userSpaceOnUse"
       gradientTransform="matrix(88.010138,0,0,88.010138,255.86978,88.679848)"
       spreadMethod="pad"
       id="linearGradient32">
      <stop
         style="stop-opacity:1;stop-color:#601622"
         offset="0"
         id="stop24" />
      <stop
         style="stop-opacity:1;stop-color:#601622"
         offset="0.28771"
         id="stop26" />
      <stop
         style="stop-opacity:1;stop-color:#b30613"
         offset="0.870704"
         id="stop28" />
      <stop
         style="stop-opacity:1;stop-color:#b30613"
         offset="1"
         id="stop30" />
    </linearGradient>
    <linearGradient
       x1="0"
       y1="0"
       x2="1"
       y2="0"
       gradientUnits="userSpaceOnUse"
       gradientTransform="matrix(138.58511,0,0,138.58511,224.6459,151.98725)"
       spreadMethod="pad"
       id="linearGradient52">
      <stop
         style="stop-opacity:1;stop-color:#e30613"
         offset="0"
         id="stop46" />
      <stop
         style="stop-opacity:1;stop-color:#e30613"
         offset="0.0391061"
         id="stop48" />
      <stop
         style="stop-opacity:1;stop-color:#ff6b13"
         offset="1"
         id="stop50" />
    </linearGradient>
    <linearGradient
       x1="0"
       y1="0"
       x2="1"
       y2="0"
       gradientUnits="userSpaceOnUse"
       gradientTransform="matrix(74.692808,0,0,74.692808,293.81811,51.260959)"
       spreadMethod="pad"
       id="linearGradient72">
      <stop
         style="stop-opacity:1;stop-color:#e30613"
         offset="0"
         id="stop66" />
      <stop
         style="stop-opacity:1;stop-color:#e30613"
         offset="0.0391061"
         id="stop68" />
      <stop
         style="stop-opacity:1;stop-color:#ff6b13"
         offset="1"
         id="stop70" />
    </linearGradient>
    <linearGradient
       x1="0"
       y1="0"
       x2="1"
       y2="0"
       gradientUnits="userSpaceOnUse"
       gradientTransform="matrix(135.01804,0,0,135.01804,194.23929,157.70139)"
       spreadMethod="pad"
       id="linearGradient94">
      <stop
         style="stop-opacity:1;stop-color:#ff6b13"
         offset="0"
         id="stop86" />
      <stop
         style="stop-opacity:1;stop-color:#ff6b13"
         offset="0.195531"
         id="stop88" />
      <stop
         style="stop-opacity:1;stop-color:#ffdc13"
         offset="0.980447"
         id="stop90" />
      <stop
         style="stop-opacity:1;stop-color:#ffdc13"
         offset="1"
         id="stop92" />
    </linearGradient>
    <linearGradient
       x1="0"
       y1="0"
       x2="1"
       y2="0"
       gradientUnits="userSpaceOnUse"
       gradientTransform="matrix(155.41806,0,0,155.41806,251.31143,54.789159)"
       spreadMethod="pad"
       id="linearGradient116">
      <stop
         style="stop-opacity:1;stop-color:#ff6b13"
         offset="0"
         id="stop108" />
      <stop
         style="stop-opacity:1;stop-color:#ff6b13"
         offset="0.195531"
         id="stop110" />
      <stop
         style="stop-opacity:1;stop-color:#ffdc13"
         offset="0.980447"
         id="stop112" />
      <stop
         style="stop-opacity:1;stop-color:#ffdc13"
         offset="1"
         id="stop114" />
    </linearGradient>
    <clipPath
       clipPathUnits="userSpaceOnUse"
       id="clipPath128">
      <path
         d="M 0,0 H 534 V 213 H 0 Z"
         id="path126" />
    </clipPath>
  </defs>
  <g
     id="g10"
     transform="matrix(1.3333333,0,0,1.3333333,0,3.7496665e-6)">
    <g
       id="g12">
      <g
         id="g14">
        <g
           id="g16">
          <g
             id="g22">
            <path
               d="m 255.871,106.254 c 0,4.398 2.867,8.133 6.82,9.465 -0.156,-1.356 -0.246,-2.731 -0.246,-4.133 0,-20.84 17.508,-37.793 39.02,-37.793 21.773,0 36.324,13.109 37.992,33.727 5.934,-3.821 4.777,-10.352 2.934,-16.418 -6.223,-17.153 -22.621,-29.461 -41.907,-29.461 -24.593,0 -44.613,19.996 -44.613,44.613"
               style="fill:url(#linearGradient32);stroke:none"
               id="path34" />
          </g>
        </g>
      </g>
      <g
         id="g36">
        <g
           id="g38">
          <g
             id="g44">
            <path
               d="m 231.758,122.5 c -0.496,1.207 -1.227,2.352 -2.274,3.395 -1.328,1.328 -3.019,2.296 -4.839,2.824 9.71,32.707 40.023,56.636 75.839,56.636 23.817,0 46.137,-10.578 61.239,-29.027 2.332,-2.848 1.914,-7.047 -0.934,-9.379 -2.851,-2.332 -7.051,-1.914 -9.383,0.934 -12.558,15.34 -31.121,24.14 -50.922,24.14 -32.039,0 -58.785,-23.031 -64.593,-53.402 -0.953,1.625 -2.332,2.992 -4.133,3.879"
               style="fill:url(#linearGradient52);stroke:none"
               id="path54" />
          </g>
        </g>
      </g>
      <g
         id="g56">
        <g
           id="g58">
          <g
             id="g64">
            <path
               d="m 293.82,33.801 c 0,3.679 2.985,6.668 6.664,6.668 24.528,0 46.68,13.551 58.032,34.918 0.191,-1.457 0.664,-2.832 1.422,-4.137 0.578,-0.75 1.156,-1.496 1.734,-2.246 1.387,-1.379 3.019,-2.332 4.902,-2.859 0.645,-0.086 1.289,-0.172 1.938,-0.258 -14.117,-23.828 -39.782,-38.75 -68.028,-38.75 -3.679,0 -6.664,2.984 -6.664,6.664"
               style="fill:url(#linearGradient72);stroke:none"
               id="path74" />
          </g>
        </g>
      </g>
      <g
         id="g76">
        <g
           id="g78">
          <g
             id="g84">
            <path
               d="m 194.238,106.246 c 0,58.582 47.66,106.242 106.246,106.242 8.891,0 17.727,-1.097 26.262,-3.269 1.781,-0.453 2.859,-2.266 2.41,-4.051 -0.457,-1.781 -2.265,-2.863 -4.054,-2.41 -7.997,2.035 -16.282,3.066 -24.618,3.066 -54.91,0 -99.578,-44.672 -99.578,-99.578 0,-1.84 -1.492,-3.332 -3.336,-3.332 -1.84,0 -3.332,1.492 -3.332,3.332"
               style="fill:url(#linearGradient94);stroke:none"
               id="path96" />
          </g>
        </g>
      </g>
      <g
         id="g98">
        <g
           id="g100">
          <g
             id="g106">
            <path
               d="m 253.16,11.098 c -1.648,0.82 -2.316,2.82 -1.5,4.468 0.824,1.653 2.824,2.317 4.473,1.496 13.844,-6.898 28.765,-10.398 44.351,-10.398 47.098,0 88.129,33.438 97.555,79.508 1.344,6.562 2.023,13.316 2.023,20.074 0,1.84 1.493,3.332 3.333,3.332 1.843,0 3.335,-1.492 3.335,-3.332 0,-7.207 -0.726,-14.406 -2.16,-21.41 C 394.512,35.68 350.738,0 300.484,0 283.859,0 267.938,3.734 253.16,11.098"
               style="fill:url(#linearGradient116);stroke:none"
               id="path118" />
          </g>
        </g>
      </g>
      <g
         id="g120">
        <g
           id="g122">
          <g
             id="g124"
             clip-path="url(#clipPath128)">
            <g
               id="g130">
              <path
                 d="m 0,48.086 h 72.52 v 8.945 H 42.969 v 85.938 H 29.414 V 57.031 H 0 Z"
                 style="fill:#95c11f;fill-opacity:1;fill-rule:nonzero;stroke:#808080;stroke-width:0.99975002;stroke-dasharray:none;opacity:1;stroke-opacity:1"
                 id="path132" />
              <path
                 d="M 98.535,142.969 H 85.391 V 73.84 H 98.535 Z M 99.758,58.387 H 84.168 V 48.086 h 15.59 z"
                 style="fill:#95c11f;fill-opacity:1;fill-rule:nonzero;stroke:#808080;stroke-opacity:1"
                 id="path134" />
              <path
                 d="m 143.941,81.297 c -12.742,0 -15.859,4.879 -15.859,20.601 v 1.219 h 35.785 v -1.219 c 0,-15.859 -2.98,-20.601 -15.722,-20.601 z m 33.075,30.633 h -48.934 v 1.629 c 0,15.855 2.98,20.601 15.859,20.601 h 29.278 v 8.809 h -31.446 c -21.554,0 -26.703,-8.676 -26.703,-34.563 0,-27.246 5.285,-35.785 26.703,-35.785 h 8.403 c 21.554,0 26.84,8.539 26.84,35.785 z"
                 style="fill:#95c11f;fill-opacity:1;fill-rule:nonzero;stroke:#808080;stroke-opacity:1"
                 id="path136" />
              <path
                 d="m 220.066,125.191 c 10.911,0 16.918,-3.308 16.918,-11.277 0,-9.316 -6.007,-12.629 -16.918,-12.629 h -7.23 v 23.906 z m -5.394,-43.765 c 9.93,0 15.328,-3.063 15.328,-11.524 0,-7.23 -5.273,-10.3 -15.328,-10.3 h -1.836 v 21.824 z m 6.5,-39.598 c 17.406,0 31.137,6.496 31.137,25.746 0,9.317 -4.043,17.285 -12.625,21.696 12.625,2.207 21.574,9.199 21.574,25.5 0,16.675 -12.133,28.199 -33.098,28.199 H 189.785 V 41.828 Z"
                 style="fill:#123303;fill-opacity:1;fill-rule:nonzero;stroke:#808080;stroke-opacity:1"
                 id="path138" />
              <path
                 d="m 290.074,102.5 c 0.356,-5.754 4.531,-10.176 12.02,-10.176 6.355,0 10.91,3.555 11.886,10.176 z m 45.106,9.09 c 0,-22.086 -14.578,-33.352 -33.707,-33.352 -18.996,0 -34.575,14.953 -34.575,33.352 0,18.265 15.579,33.219 34.575,33.219 13.976,0 25.507,-4.536 32.617,-16.446 l -15.707,-7.84 c -5.27,5.641 -8.332,6.997 -15.313,6.997 -5.531,0 -13.617,-3.309 -13.617,-12.997 h 45.613 c 0.114,-0.734 0.114,-2.089 0.114,-2.933"
                 style="fill:#bd4b00;fill-opacity:1;fill-rule:nonzero;stroke:#808080;stroke-opacity:1"
                 id="path140" />
              <path
                 d="M 368.402,142.969 H 345.355 V 41.828 h 23.047 l 40.215,62.77 h 0.242 v -62.77 h 23.051 v 101.141 h -23.051 l -40.211,-62.77 h -0.246 z"
                 style="fill:#123303;fill-opacity:1;fill-rule:nonzero;stroke:#808080;stroke-opacity:1"
                 id="path142" />
              <path
                 d="M 469.668,142.969 H 446.617 V 41.828 h 23.051 l 40.211,62.77 h 0.246 v -62.77 h 23.047 V 142.969 H 510.125 L 469.91,80.199 h -0.242 z"
                 style="fill:#123303;fill-opacity:1;fill-rule:nonzero;stroke:#808080;stroke-opacity:1"
                 id="path144" />
            </g>
          </g>
        </g>
      </g>
    </g>
  </g>
</svg>
